<svg xmlns="http://www.w3.org/2000/svg" xml:space="preserve" style="enable-background:new 0 0 511.998 511.998" viewBox="0 0 511.998 511.998">
  <path d="M482.709 169.844c-19.813-35.054-46.729-54.36-75.788-54.36-3.057 0-6.115.238-9.142.671-13.77-10.99-28.932-17.445-44.733-18.549L335.367 86.53c-24.36-15.263-38.904-41.539-38.904-70.286 0-5.024-4.073-9.097-9.097-9.097h-62.73c-5.024 0-9.097 4.073-9.097 9.097 0 28.748-14.544 55.022-38.904 70.286l-17.677 11.076c-15.803 1.104-30.965 7.559-44.735 18.549-3.028-.433-6.086-.671-9.141-.671-29.061 0-55.975 19.306-75.788 54.36C10.403 203.261 0 247.496 0 294.399s10.403 91.137 29.291 124.556c19.813 35.054 46.729 54.358 75.788 54.358 3.055 0 6.112-.237 9.137-.67 15.177 12.112 32.042 18.731 49.595 18.731 11.153 0 22.099-2.619 32.625-7.776 18.377 13.913 38.848 21.253 59.561 21.253 20.714 0 41.185-7.34 59.561-21.253 10.526 5.158 21.473 7.776 32.625 7.776 17.553 0 34.418-6.62 49.595-18.732 3.026.433 6.083.67 9.139.67 29.061 0 55.975-19.306 75.788-54.358 18.889-33.419 29.291-77.653 29.291-124.556.004-46.902-10.399-91.137-29.287-124.554zM233.331 25.342h45.338c2.752 31.09 19.546 58.976 46.132 76.021-3.112 1.065-6.193 2.345-9.24 3.837-15.68-11.871-32.884-18.949-50.464-20.769V55.06c0-5.024-4.073-9.097-9.097-9.097s-9.097 4.073-9.097 9.097v29.371c-17.581 1.819-34.786 8.898-50.464 20.769-3.047-1.493-6.128-2.773-9.239-3.837 26.584-17.045 43.379-44.931 46.131-76.021zM466.87 410.001c-14.128 24.993-31.831 40.329-50.623 44.16 16.721-20.494 30.219-48.611 38.595-82.262 1.213-4.876-1.755-9.812-6.63-11.025-4.873-1.213-9.811 1.755-11.025 6.63-15.979 64.196-50.914 105.677-89 105.677-5.889 0-11.738-1.014-17.496-2.98 9.331-9.572 17.849-20.906 25.413-33.854.813-1.393 1.242-2.977 1.242-4.589v-.012c0-5.024-4.073-9.091-9.097-9.091-3.423 0-6.405 1.895-7.958 4.689-9.171 15.661-19.784 28.597-31.547 38.454-16.506 13.841-34.252 20.86-52.742 20.86s-36.235-7.018-52.744-20.862c-11.805-9.891-22.452-22.887-31.647-38.626-2.534-4.339-8.105-5.799-12.444-3.267-4.338 2.534-5.8 8.105-3.267 12.444 7.564 12.949 16.082 24.284 25.412 33.854-5.758 1.966-11.608 2.98-17.497 2.98-38.086 0-73.02-41.48-88.999-105.677-1.213-4.876-6.151-7.846-11.025-6.63-4.876 1.213-7.844 6.15-6.63 11.025 8.376 33.651 21.874 61.767 38.593 82.262-18.791-3.831-36.495-19.166-50.621-44.159-17.372-30.732-26.939-71.787-26.939-115.603s9.567-84.871 26.937-115.602c14.128-24.995 31.833-40.332 50.626-44.16-16.722 20.497-30.223 48.619-38.599 82.275-1.213 4.876 1.755 9.812 6.63 11.025.737.184 1.476.272 2.204.272 4.079 0 7.791-2.764 8.821-6.902 15.981-64.203 50.915-105.689 88.999-105.689 5.887 0 11.736 1.013 17.491 2.979-9.341 9.576-17.859 20.919-25.412 33.875-.81 1.391-1.238 2.972-1.238 4.581v.012c0 5.024 4.073 9.091 9.097 9.091 3.427 0 6.409-1.897 7.961-4.697 9.152-15.661 19.762-28.597 31.544-38.459 16.507-13.841 34.252-20.86 52.742-20.86 18.491 0 36.235 7.018 52.748 20.865 11.745 9.831 22.331 22.725 31.466 38.33 1.531 2.869 4.554 4.819 8.034 4.819 5.024 0 9.097-4.079 9.097-9.103 0-1.61-.427-3.191-1.238-4.581-7.553-12.956-16.071-24.298-25.412-33.875 5.756-1.965 11.605-2.979 17.491-2.979 38.084 0 73.019 41.485 89 105.689 1.03 4.137 4.742 6.902 8.821 6.902.728 0 1.466-.089 2.204-.272 4.876-1.213 7.844-6.15 6.63-11.025-8.377-33.658-21.877-61.778-38.599-82.276 18.794 3.828 36.5 19.165 50.629 44.16 17.37 30.731 26.937 71.787 26.937 115.602 0 43.819-9.566 84.874-26.935 115.605z"/>
  <path d="m227.533 260.41-80.647-56.063c-2.325-1.617-5.273-2.057-7.971-1.194-2.698.865-4.839 2.938-5.79 5.606l-27.898 78.206c-1.104 3.092-.455 6.539 1.697 9.019 1.747 2.014 4.264 3.136 6.87 3.136.605 0 1.214-.061 1.819-.184l108.545-22.142c3.567-.728 6.357-3.513 7.092-7.079.736-3.567-.727-7.227-3.717-9.305zm-99.749 17.473 18.481-51.809 53.427 37.14-71.908 14.669zm278.99 9.083-27.898-78.206c-.952-2.669-3.092-4.742-5.79-5.606-2.699-.865-5.644-.423-7.97 1.194l-80.647 56.063c-2.99 2.078-4.452 5.739-3.718 9.305s3.525 6.351 7.092 7.079l108.545 22.142c.605.124 1.214.184 1.82.184 2.607 0 5.124-1.122 6.87-3.136 2.151-2.48 2.8-5.928 1.696-9.019zm-94.466-23.752 53.427-37.14 18.481 51.809-71.908-14.669zm87.577 66.387c-2.098-3.145-5.928-4.667-9.616-3.812-49.143 11.369-99.645 16.453-150.1 15.111-2.426-.064-4.829.864-6.589 2.576-1.759 1.713-2.751 4.063-2.751 6.517v19.227h-14.556v-20.993c0-4.739-3.639-8.685-8.364-9.068-28.974-2.347-57.971-6.846-86.18-13.372-3.689-.854-7.519.667-9.619 3.816s-2.031 7.271.175 10.347c36.535 50.978 88.916 80.216 143.713 80.216 11.073 0 22.229-1.198 33.156-3.561 4.187-.905 7.175-4.608 7.175-8.892v-22.724h12.13v12.725c0 3.086 1.564 5.961 4.154 7.637 2.591 1.676 5.853 1.925 8.668.662 29.979-13.456 57.099-36.301 78.43-66.065 2.205-3.078 2.274-7.199.174-10.347zm-73.23 53.311v-7.019c0-5.024-4.073-9.097-9.097-9.097h-30.325c-5.024 0-9.097 4.073-9.097 9.097v24.285c-7.346 1.191-14.763 1.794-22.137 1.794-41.519 0-81.691-19.114-113.119-53.178 18.247 3.415 36.712 6.014 55.198 7.767v21.758c0 5.024 4.073 9.097 9.097 9.097h32.75c5.024 0 9.097-4.073 9.097-9.097v-19.053c40.278.458 80.539-3.056 120.098-10.468-12.807 13.901-27.142 25.424-42.465 34.114z"/>
  <path d="m295.41 311.817-31.533-54.614c-1.625-2.815-4.628-4.549-7.878-4.549-3.251 0-6.253 1.733-7.878 4.549l-31.531 54.614c-1.625 2.814-1.625 6.282 0 9.097 1.625 2.815 4.628 4.549 7.878 4.549h63.064c3.251 0 6.253-1.733 7.878-4.549 1.626-2.815 1.626-6.282 0-9.097zm-55.185-4.549L256 279.946l15.775 27.322h-31.55z"/>
</svg>