<svg xmlns="http://www.w3.org/2000/svg" xml:space="preserve" style="enable-background:new 0 0 460 460" viewBox="0 0 460 460">
  <path d="M459.979 185.23c-.046-2.295-1.172-4.433-3.038-5.77l-83.842-60.046 11.041-11.041c2.842-2.843 2.842-7.451 0-10.293l-35.289-35.289c-1.366-1.365-3.217-2.132-5.147-2.132s-3.781.767-5.147 2.132l-11.961 11.962-59.55-59.55c-2.449-2.447-6.28-2.834-9.165-.922-2.886 1.911-4.027 5.59-2.728 8.798 7.036 17.392 20.839 66.989.475 87.353l-34.164 34.165c-2.842 2.842-2.842 7.451 0 10.293l12.498 12.498L2.132 399.216c-2.842 2.842-2.842 7.451 0 10.293l35.289 35.289c1.422 1.421 3.285 2.132 5.147 2.132s3.725-.711 5.147-2.132l230.907-230.907 60.047 83.842c1.336 1.866 3.475 2.992 5.77 3.039.678.014 1.353.02 2.031.02 28.776 0 57.601-12.377 79.378-34.153 22.289-22.289 34.729-51.961 34.131-81.409zM343.704 78.231l24.996 24.996-6.815 6.815-24.996-24.996 6.815-6.815zm-58.628 119.754c-11.025-12.998-48.173-48.242-48.173-48.242l29.018-29.019c18.842-18.842 16.401-51.336 11.224-74.836 0 0 58.476 61.678 80.048 79.979 13.896 11.789 59.233 42.482 59.233 42.482-.052 22.37-9.79 44.864-26.898 61.971-17.105 17.106-39.623 26.848-61.97 26.897-.001 0-30.695-45.335-42.482-59.232zM42.568 429.358l-24.996-24.996 226.682-226.681 24.996 24.996L42.568 429.358zm372.985-173.012c-18.587 18.588-42.904 29.35-67.227 29.87l-10.747-15.006c22.777-2.51 44.948-13.303 62.241-30.597 17.295-17.294 28.087-39.466 30.596-62.243l15.007 10.748c-.521 24.322-11.283 48.642-29.87 67.228z"/>
</svg>