<svg fill="#000000" xmlns="http://www.w3.org/2000/svg"  viewBox="0 0 32 32" width="32px" height="32px"><path d="M 15.90625 2.90625 C 12.339844 2.90625 10.242188 4.71875 9.25 6.5 C 8.441406 7.953125 8.289063 9.167969 8.25 9.65625 C 6.863281 10.550781 6 11.980469 6 13.40625 C 6 14.898438 6.578125 15.957031 7.3125 16.5625 C 8.023438 17.144531 8.683594 17.410156 9.28125 17.90625 C 9.285156 17.910156 9.277344 17.933594 9.28125 17.9375 C 10.195313 18.90625 10.804688 21.457031 11.46875 23.875 C 11.804688 25.089844 12.15625 26.273438 12.8125 27.25 C 13.46875 28.226563 14.570313 29 15.90625 29 C 17.285156 29 18.386719 28.160156 19.09375 27.125 C 19.800781 26.089844 20.261719 24.8125 20.65625 23.53125 C 21.050781 22.25 21.363281 20.953125 21.6875 19.90625 C 22.011719 18.859375 22.414063 18.070313 22.5625 17.9375 L 22.59375 17.9375 C 23.136719 17.433594 23.78125 17.214844 24.53125 16.625 C 25.28125 16.035156 25.90625 14.953125 25.90625 13.40625 C 25.90625 12.554688 25.601563 11.691406 25.125 10.9375 C 24.777344 10.390625 24.195313 10.027344 23.625 9.65625 C 23.578125 9.179688 23.429688 7.957031 22.59375 6.5 C 21.574219 4.722656 19.472656 2.90625 15.90625 2.90625 Z M 15.90625 4.90625 C 18.839844 4.90625 20.117188 6.179688 20.875 7.5 C 21.632813 8.820313 21.6875 10.15625 21.6875 10.15625 L 21.71875 10.8125 L 22.34375 11.03125 C 22.730469 11.179688 23.140625 11.5625 23.4375 12.03125 C 23.734375 12.5 23.90625 13.054688 23.90625 13.40625 C 23.90625 14.558594 23.710938 14.71875 23.3125 15.03125 C 22.914063 15.34375 22.078125 15.671875 21.21875 16.46875 C 20.417969 17.1875 20.132813 18.175781 19.78125 19.3125 C 19.429688 20.449219 19.089844 21.730469 18.71875 22.9375 C 18.347656 24.144531 17.933594 25.277344 17.4375 26 C 16.941406 26.722656 16.527344 27 15.90625 27 C 15.242188 27 14.921875 26.75 14.5 26.125 C 14.078125 25.5 13.691406 24.492188 13.375 23.34375 C 12.742188 21.050781 12.394531 18.242188 10.71875 16.5 L 10.65625 16.4375 C 9.773438 15.671875 8.953125 15.320313 8.5625 15 C 8.171875 14.679688 8 14.515625 8 13.40625 C 8 12.652344 8.621094 11.449219 9.59375 11.03125 L 10.1875 10.78125 L 10.1875 10.125 C 10.1875 10.125 10.265625 8.816406 11 7.5 C 11.734375 6.183594 12.972656 4.90625 15.90625 4.90625 Z M 14.09375 9.03125 C 13.714844 9.128906 13.414063 9.644531 13.1875 10.09375 C 12.789063 10.894531 12.292969 11.507813 11.59375 11.90625 C 11.09375 12.207031 10.511719 12.289063 10.3125 12.6875 C 9.914063 13.6875 10.789063 14.59375 11.6875 14.59375 C 13.1875 14.59375 14.085938 13.304688 14.6875 11.90625 C 14.886719 11.207031 15.398438 9.492188 14.5 9.09375 C 14.351563 9.019531 14.21875 9 14.09375 9.03125 Z M 17.625 9.03125 C 17.554688 9.039063 17.480469 9.054688 17.40625 9.09375 C 16.507813 9.492188 16.988281 11.207031 17.1875 11.90625 C 17.789063 13.304688 18.6875 14.59375 20.1875 14.59375 C 21.085938 14.59375 21.992188 13.6875 21.59375 12.6875 C 21.292969 12.1875 20.8125 12.105469 20.3125 11.90625 C 19.613281 11.507813 18.988281 10.894531 18.6875 10.09375 C 18.425781 9.570313 18.109375 8.972656 17.625 9.03125 Z M 15.90625 13 C 15.605469 13 14.1875 15.6875 14.6875 15.6875 C 15.289063 15.6875 15.605469 15.09375 15.90625 15.09375 C 16.207031 15.09375 16.695313 15.6875 17.09375 15.6875 C 17.695313 15.6875 16.304688 13 15.90625 13 Z M 16 16.59375 C 14.800781 16.59375 14.3125 17.210938 14.3125 17.8125 C 14.3125 18.210938 14.804688 20.1875 14.90625 21.6875 C 14.90625 23.289063 15.398438 25 16 25 C 16.699219 25 16.992188 23.601563 17.09375 22 C 17.195313 19.898438 17.789063 18.707031 17.6875 17.90625 C 17.6875 17.507813 17.199219 16.59375 16 16.59375 Z"/></svg>