<?xml version="1.0" encoding="iso-8859-1"?>
<!-- Generator: Adobe Illustrator 18.0.0, SVG Export Plug-In . SVG Version: 6.00 Build 0)  -->
<!DOCTYPE svg PUBLIC "-//W3C//DTD SVG 1.1//EN" "http://www.w3.org/Graphics/SVG/1.1/DTD/svg11.dtd">
<svg version="1.1" id="Capa_1" xmlns="http://www.w3.org/2000/svg" xmlns:xlink="http://www.w3.org/1999/xlink" x="0px" y="0px"
	 viewBox="0 0 444.38 444.38" style="enable-background:new 0 0 444.38 444.38;" xml:space="preserve">
<g>
	<g>
		<path d="M198.031,192.065c-17.781,0-31.189,7.406-31.189,17.228c0,9.822,13.408,17.228,31.188,17.228
			c17.78,0,31.188-7.406,31.188-17.228C229.217,199.472,215.81,192.065,198.031,192.065z M198.029,216.521
			c-13.763,0-21.188-5.13-21.188-7.228c0-1.148,2.241-3.203,6.515-4.83v0.898c0,2.761,2.239,5,5,5s5-2.239,5-5v-3.084
			c1.467-0.134,3.023-0.211,4.675-0.211c1.651,0,3.205,0.078,4.672,0.211v3.085c0,2.761,2.239,5,5,5c2.761,0,5-2.239,5-5v-0.898
			c4.274,1.627,6.515,3.682,6.515,4.831C219.217,211.391,211.792,216.521,198.029,216.521z"/>
	</g>
	<g>
		<path d="M275.052,342.75c-1.135,0-2.276-0.384-3.213-1.171c-2.115-1.776-2.389-4.93-0.613-7.044l26.272-31.276
			c1.776-2.114,4.931-2.388,7.044-0.613c2.115,1.776,2.389,4.93,0.613,7.044l-26.272,31.276
			C277.894,342.143,276.477,342.75,275.052,342.75z"/>
	</g>
	<g>
		<path d="M285.567,352.008c-1.577,0-3.127-0.744-4.1-2.133c-1.584-2.262-1.034-5.38,1.228-6.963l31.777-22.248
			c2.262-1.585,5.379-1.034,6.963,1.228c1.584,2.262,1.034,5.38-1.228,6.963l-31.777,22.248
			C287.558,351.715,286.557,352.008,285.567,352.008z"/>
	</g>
	<g>
		<path d="M290.82,365.02c-1.93,0-3.768-1.124-4.587-3.006c-1.102-2.532,0.058-5.478,2.59-6.58l39.382-17.137
			c2.529-1.101,5.478,0.057,6.58,2.59c1.102,2.532-0.058,5.478-2.59,6.58l-39.382,17.137
			C292.163,364.886,291.486,365.02,290.82,365.02z"/>
	</g>
	<path d="M419.533,334.6c-12.303-17.191-37.725-17.369-56.246-14.712c-0.479-0.503-0.995-0.975-1.535-1.417
		c16.282-9.975,40.938-17.567,52.085-20.288c2.061-0.504,3.582-2.254,3.79-4.366c0.209-2.112-0.938-4.125-2.862-5.023
		c-29.065-13.558-63.225-2.872-83.623,6.301c19.94-22.246,55.744-42.35,56.188-42.597c1.945-1.083,2.939-3.322,2.439-5.491
		c-0.5-2.169-2.374-3.747-4.596-3.87c-22.494-1.247-45.204,5.306-67.498,19.467c-8.075,5.129-16.104,11.272-24.041,18.361
		c-5.901-1.589-12.046-2.977-18.321-4.107c-22.664-4.081-22.691-25.012-22.681-25.877c0.001-0.037-0.027-21.533-0.027-21.533
		c1.754-3.221,3.51-6.273,5.496-9.065c5.937-8.351,10.652-17.881,14.404-27.883c5.431,1.537,11.053,1.342,11.449,1.337
		c13.52-0.168,19.84-22.811,22.405-36.293c0,0,4.336-22.756,0.063-28.57c-0.036-0.049-0.078-0.091-0.115-0.139
		c8.093-1.206,14.766-2.542,19.899-3.989c7.15-2.017,14.459-4.925,14.459-11.204s-7.309-9.187-14.459-11.204
		c-7.182-2.026-17.364-3.833-30.262-5.372c-5.132-0.612-10.604-1.168-16.348-1.67c-0.061-7.89-0.442-24.686-2.408-41.955
		c-3.849-33.808-11.723-51.098-24.071-52.859c-21.182-3.021-47.695,6.584-55.089,9.497c-7.391-2.914-33.901-12.522-55.09-9.497
		c-12.347,1.761-20.22,19.052-24.07,52.859c-1.965,17.259-2.347,34.057-2.408,41.955c-5.744,0.502-11.216,1.059-16.348,1.671
		c-12.898,1.539-23.08,3.346-30.262,5.372c-7.15,2.017-14.459,4.925-14.459,11.204s7.309,9.187,14.459,11.204
		c5.133,1.448,11.805,2.783,19.898,3.989c-0.036,0.048-0.078,0.089-0.114,0.138c-4.272,5.813,0.063,28.57,0.063,28.57
		c2.564,13.482,8.885,36.125,22.403,36.293c0.395,0.005,6.782-0.048,11.442-1.356c3.753,10.009,8.47,19.546,14.411,27.902
		c1.985,2.792,3.741,5.844,5.495,9.065c0,0-0.027,21.497-0.027,21.534c0.019,0.887,0.187,21.759-22.682,25.877
		c-29.114,5.243-96.83,23.746-96.83,82.176v80.345c0,2.761,2.239,5,5,5h338.234c2.761,0,5-2.239,5-5v-91.333
		c21.292-10.439,41.049-5.941,42.128-5.682c2.03,0.5,4.16-0.319,5.333-2.052C420.781,338.581,420.751,336.301,419.533,334.6z
		 M394.921,293.199c-9.759,3.137-22.172,7.743-33.058,13.663l-6.168-10.101C367.855,293.27,381.653,291.16,394.921,293.199z
		 M365.514,254.166c-9.109,5.991-20.526,14.142-30.754,23.334l-10.132-7.327C337.204,262.407,350.92,256.551,365.514,254.166z
		 M296.535,155.675c-3.682,19.362-9.646,28.124-12.705,28.162c-4.318,0.056-6.617-0.236-8.093-0.791
		c4.645-14.98,7.376-30.504,8.96-44.374c2.138-2.743,6.947-5.211,11.076-4.74c0.939,0.108,2.15,0.364,2.592,0.964
		C300.056,137.197,296.535,155.675,296.535,155.675z M128.806,54.573c3.573-31.383,10.373-43.354,15.545-44.091
		c21.525-3.07,51.316,9.423,51.719,9.593c1.303,0.555,2.707,0.507,3.914-0.007l0.003,0.007c0.298-0.127,30.11-12.673,51.719-9.594
		c5.167,0.737,11.962,12.686,15.538,44.011c1.832,16.049,2.251,32.062,2.339,40.105c-21.384-1.547-45.943-2.376-71.555-2.376
		c-25.612,0-50.17,0.828-71.554,2.376C126.562,86.57,126.98,70.607,128.806,54.573z M67.817,113.642
		c4.305-1.746,14.635-4.654,38.725-7.239c25.12-2.696,57.61-4.181,91.487-4.181c33.878,0,66.369,1.485,91.488,4.181
		c24.09,2.585,34.42,5.493,38.725,7.239c-4.305,1.746-14.635,4.654-38.725,7.239c-25.119,2.696-57.61,4.18-91.488,4.18
		c-33.877,0-66.368-1.484-91.487-4.18C82.451,118.296,72.121,115.388,67.817,113.642z M248.05,140.18
		c0,5.704-4.643,10.344-10.349,10.344c-5.702,0-10.341-4.64-10.341-10.344c0-0.443,0.028-0.882,0.085-1.317h20.519
		C248.022,139.297,248.05,139.737,248.05,140.18z M168.697,140.18c0,5.704-4.641,10.344-10.345,10.344
		c-5.703,0-10.343-4.64-10.343-10.344c0-0.443,0.028-0.883,0.085-1.317h20.518C168.668,139.297,168.697,139.737,168.697,140.18z
		 M112.227,183.837c-3.058-0.038-9.021-8.8-12.704-28.162c0,0-3.521-18.48-1.83-20.78c0.44-0.6,1.651-0.855,2.589-0.963
		c4.131-0.483,8.952,2.01,11.081,4.764c1.585,13.861,4.314,29.372,8.954,44.34C118.845,183.595,116.551,183.89,112.227,183.837z
		 M120.741,132.248c2.277,0.184,4.605,0.356,6.961,0.523c-0.079,0.352-0.127,0.715-0.127,1.091c0,2.761,2.239,5,5,5h5.481
		c-0.028,0.437-0.047,0.876-0.047,1.317c0,11.218,9.126,20.344,20.343,20.344c11.218,0,20.345-9.126,20.345-20.344
		c0-0.441-0.019-0.88-0.047-1.317h3.766v26.371c-7.526,2.173-13.054,9.093-13.054,17.31c0,2.761,2.239,5,5,5s5-2.239,5-5
		c0-2.775,1.411-5.227,3.553-6.676c0.804,1.685,2.509,2.858,4.501,2.858c2.761,0,5-2.239,5-5v-34.863h11.229v34.863
		c0,2.761,2.239,5,5,5c1.988,0,3.691-1.169,4.497-2.851c2.144,1.446,3.558,3.893,3.558,6.668c0,2.761,2.239,5,5,5
		c2.761,0,5-2.239,5-5c0-8.216-5.529-15.134-13.055-17.309v-26.372h3.764c-0.028,0.438-0.047,0.876-0.047,1.317
		c0,11.218,9.125,20.344,20.341,20.344c11.22,0,20.349-9.126,20.349-20.344c0-0.441-0.019-0.88-0.047-1.317h5.481
		c2.761,0,5-2.239,5-5c0-0.376-0.049-0.739-0.127-1.091c2.355-0.167,4.683-0.339,6.96-0.523
		c-2.209,22.554-8.341,58.397-25.364,82.339c-3.015,4.24-5.511,8.904-7.924,13.415c-8.172,15.275-15.891,29.702-44,29.703
		c-28.108-0.001-35.827-14.428-43.999-29.703c-2.413-4.511-4.908-9.175-7.923-13.415
		C129.083,190.646,122.951,154.803,120.741,132.248z M248.584,270.86c-1.536,10.891-21.859,22.474-50.555,22.474
		c-28.696,0-49.021-11.584-50.554-22.475c4.56-7.055,6.044-14.824,5.949-20.027l0.005-4.185
		c8.086,11.475,20.115,21.057,44.598,21.058h0c0,0,0.001,0,0.001,0c0,0,0.001,0,0.001,0h0.001
		c24.483-0.001,36.513-9.583,44.599-21.058l0.005,4.185C242.539,256.036,244.023,263.805,248.584,270.86z M122.515,286.7
		c7.272-1.31,12.938-4.025,17.327-7.467c7.307,14.079,30.246,24.101,58.187,24.101c27.937,0,50.884-10.018,58.195-24.094
		c4.388,3.439,10.052,6.151,17.318,7.46c3.88,0.699,7.701,1.506,11.447,2.393c-6.371,6.305-12.67,13.227-18.872,20.746
		c-1.85,2.242-3.645,4.484-5.39,6.718H53.237C73.713,297.758,105.401,289.782,122.515,286.7z M98.003,434.38H33.912v-25.859h64.091
		V434.38z M33.912,398.521v-30.982h59.624c3.197,10.016,4.297,22.259,4.51,30.982H33.912z M93.301,347.001
		c-1.953-1.952-5.118-1.952-7.071,0c-1.953,1.953-1.953,5.119,0,7.071c1.005,1.005,1.927,2.173,2.775,3.466H33.941
		c0.297-12.24,4.213-22.46,10.35-30.982H253.2c-8.266,11.392-15.066,22.155-20.255,30.982H100.342
		C98.472,353.499,96.166,349.866,93.301,347.001z M227.27,367.539c-1.671,3.057-3.019,5.631-4.034,7.617l-7.778-3.752
		c-2.008-0.969-4.417-0.49-5.903,1.174L186.4,398.521h-78.365c-0.171-7.685-0.992-19.79-4.089-30.982H227.27z M108.003,434.38
		v-25.859h69.471l-23.081,25.859H108.003z M167.798,434.38l12.545-14.055l29.94,14.055H167.798z M233.815,434.38l-46.524-21.84
		l27.216-30.492l53.936,26.02l-21.54,26.311H233.815z M288.055,434.38h-28.229c0,0,20.83-25.517,20.998-25.859h7.231V434.38z
		 M362.146,434.38h-64.091v-25.859h64.091V434.38z M362.146,398.521h-64.091v-2.629c16.159-5.706,34.985-14.688,49.482-28.353
		h14.609V398.521z M362.146,357.539h-4.342c1.439-1.233,2.887-2.4,4.342-3.46V357.539z M344.361,356.589
		c-25.283,27.19-71.815,36.522-80.667,38.085l-31.437-15.166c5.329-10.35,20.059-37.258,41.702-63.462
		c11.21-13.572,25.371-28.204,41.787-39.956l11.664,8.435c-6.974,7.135-12.822,14.688-16.123,22.207
		c-0.885,2.015-0.348,4.372,1.323,5.805c1.67,1.434,4.082,1.604,5.939,0.424c0.242-0.154,11.502-7.208,27.378-13.01l7.384,12.093
		c-6.602,4.504-11.97,9.595-14.788,15.231c-0.9,1.801-0.631,3.966,0.681,5.494c1.313,1.527,3.414,2.117,5.331,1.5
		c0.188-0.061,7.261-2.298,16.889-3.95l3.747,10.052C358.159,344.143,351.07,349.374,344.361,356.589z M374.294,336.212
		l-2.696-7.231c9.027-0.804,18.841-0.574,26.961,2.292C391.598,331.58,383.178,332.857,374.294,336.212z"/>
</g>
<g>
</g>
<g>
</g>
<g>
</g>
<g>
</g>
<g>
</g>
<g>
</g>
<g>
</g>
<g>
</g>
<g>
</g>
<g>
</g>
<g>
</g>
<g>
</g>
<g>
</g>
<g>
</g>
<g>
</g>
</svg>
