<svg xmlns="http://www.w3.org/2000/svg" viewBox="0 0 80 80">
  <path d="M36 7.01758a1.0001 1.0001 0 0 0-1 1V9a1.0001 1.0001 0 0 0-.08398.0039c-1.90471.16073-8.99496.98755-14.9375 6.92383-6.16596 6.16074-6.85764 13.59114-6.97657 15.43555A1.0001 1.0001 0 0 0 13 31.42773V34h-2a1.0001 1.0001 0 0 0-1 1v8a1.0001 1.0001 0 0 0 1 1h2.20117c1.34192 7.5159 4.48339 14.5978 9.00977 19.89648C26.90859 69.39566 33.10607 73 40.12109 73c6.9658 0 13.06304-3.64669 17.68164-9.1621C62.2532 58.52325 65.34493 51.44747 66.73828 44H69a1.0001 1.0001 0 0 0 1-1v-8a1.0001 1.0001 0 0 0-1-1h-2.0586c.02755-2.09155-.12523-9.2739-5.25976-15.8418-6.20578-7.93951-14.99655-8.94807-16.625-9.10351A1.0001 1.0001 0 0 0 45 9.05079V8.01757a1.0001 1.0001 0 0 0-1-1h-8zm1 2h2A1 1 0 0 0 40 10a1 1 0 0 0 1-.98242h2V21h-6V9.01758zm-2 1.9961V22a1.0001 1.0001 0 0 0 1 1h8a1.0001 1.0001 0 0 0 1-1V11.0664c1.66577.165 9.50006 1.15281 15.10547 8.32423 4.71625 6.03285 4.86186 12.67582 4.83594 14.5957a1.0001 1.0001 0 0 0 0 .01367H60a1.0001 1.0001 0 0 0-1 1v8a1.0001 1.0001 0 0 0 1 1h4.6875c-1.37091 7.00058-4.30505 13.64314-8.41797 18.55469C51.92588 67.74176 46.3913 71 40.1211 71c-6.33197 0-11.97452-3.23276-16.39062-8.40234C19.54595 57.69917 16.57147 51.0552 15.25 44H20a1.0001 1.0001 0 0 0 1-1v-8a1.0001 1.0001 0 0 0-1-1h-5v-2.5254c.11103-1.70913.75418-8.49722 6.39258-14.13085C26.79622 11.94581 33.19597 11.16939 35 11.01367zM40 12a1 1 0 0 0 0 2 1 1 0 0 0 0-2zm10.60938 2.1504c-.54-.1-1.06016.25882-1.16016.79882-.1.54.26078 1.06015.80078 1.16015.06.01.11969.02149.17969.02149.48 0 .90047-.34031.98047-.82031.099-.55-.26078-1.06016-.80078-1.16016zm-21.80274.1914c-.12948-.0139-.26423-.00094-.39648.03906-.53.16-.82993.71828-.66993 1.23828v.01172c.13.43.52899.70898.95899.70898.1 0 .19001-.01906.29101-.03906.529-.16.82893-.72.66993-1.25-.12-.3975-.46507-.66726-.85352-.70898zM40 16a1 1 0 0 0 0 2 1 1 0 0 0 0-2zm9.88867 2.08008c-.54-.1-1.05915.26055-1.16015.81055-.099.54.26078 1.06015.80078 1.16015.07.01.1314.00977.1914.00977.469 0 .88752-.33032.97852-.82032.099-.54-.26055-1.06015-.81055-1.16015zm-19.93164.0918c-.12953-.01391-.26398-.00094-.39648.03906-.529.16-.82992.72-.66992 1.25.13.43.52898.70898.95898.70898.09 0 .19102-.01906.29102-.03906.53-.16.82992-.72.66992-1.25-.12-.3975-.46493-.66727-.85352-.70898zm-6.93555 2.83398c-.13009.01203-.2603.04828-.3828.11328-.49.26-.67016.86156-.41016 1.35156.181.34.52185.5293.88086.5293.161 0 .3207-.03914.4707-.11914.489-.26.67015-.86156.41015-1.35156-.1875-.3675-.57846-.55953-.96875-.52344zm33.06641 0c-.39014-.0361-.78125.15594-.96875.52344-.261.49-.07984 1.09156.41016 1.35156.15.08.3107.11914.4707.11914.359 0 .70086-.1893.88086-.5293.26-.49.07984-1.09156-.41016-1.35156-.12275-.065-.25276-.10125-.3828-.11328zm-24.98242.9961c-.12953-.01391-.26203-.0029-.39453.0371-.53.16-.83188.72-.67188 1.25.13.43.52994.71094.96094.71094.09 0 .18806-.00906.28906-.03906.529-.16.83188-.72.67188-1.25-.12-.3975-.46688-.66727-.85547-.70899zm18.07422.01757c-.55-.1-1.05916.26078-1.16016.80078-.099.55.25983 1.06992.79883 1.16992.061.01.12064.00977.18164.00977.47 0 .89852-.34031.97852-.82031.1-.54-.25883-1.07016-.79883-1.16016zm9.98437 1.53125c-.25387-.02875-.51937.03899-.73437.20899-.43.34-.51016.97015-.16016 1.41015.19.25.49125.36914.78125.36914.22 0 .43914-.05898.61914-.20898.43-.34.51016-.97016.16016-1.41016-.1695-.215-.41214-.34039-.66602-.36914zm-39.21875.00195c-.25362.03-.49601.15696-.66601.37696-.351.43-.26985 1.06039.16015 1.40039.181.14.40014.20898.61914.20898.29 0 .59125-.11914.78125-.36914.35-.44.26985-1.07015-.16015-1.41015-.2145-.17-.48075-.23704-.73438-.20704zM34 26c-.55 0-1 .45-1 1s.45 1 1 1 1-.45 1-1-.45-1-1-1zm4 0c-.55 0-1 .45-1 1s.45 1 1 1 1-.45 1-1-.45-1-1-1zm4 0c-.55 0-1 .45-1 1s.45 1 1 1 1-.45 1-1-.45-1-1-1zm4 0c-.55 0-1 .45-1 1s.45 1 1 1 1-.45 1-1-.45-1-1-1zm-27.8496 1.11328c-.38626.06047-.71532.3411-.82032.7461-.14.53.1907 1.08093.7207 1.21093.09.03.17.0293.25.0293.45 0 .84875-.3.96875-.75.14-.54-.18875-1.07875-.71875-1.21875-.135-.0325-.27164-.03773-.40039-.01758zm42.80858.0039c-.12876-.01874-.26343-.01156-.39843.02344-.53.13-.8607.66899-.7207 1.20899.12.45.5197.75.9707.75.08 0 .16-.0093.25-.0293.531-.13.8507-.68093.7207-1.21093-.10575-.405-.43597-.68594-.82227-.7422zM30 30l9.21875 6.5625.78125.55664.78125-.55664L50 30l-10 3.1875L30 30zm-18 6h1.83203a1.0001 1.0001 0 0 0 .32617 0H19v6h-4.8418a1.0001 1.0001 0 0 0-.33203 0H12v-2a1 1 0 0 0 0-2v-2zm49 0h7v2a1 1 0 0 0 0 2v2h-1.89063a1.0001 1.0001 0 0 0-.32812 0H61v-6zm-31 .92969c-3 0-6 .78728-6 2.36328C24 42.44497 26.686 45 30 45s6-2.55503 6-5.70703c0-1.576-3-2.36328-6-2.36328zm20 0c-3 0-6 .78728-6 2.36328C44 42.44497 46.686 45 50 45s6-2.55503 6-5.70703c0-1.576-3-2.36328-6-2.36328zM16 38a1 1 0 0 0 0 2 1 1 0 0 0 0-2zm48 0a1 1 0 0 0 0 2 1 1 0 0 0 0-2zm-38 9c-1.396.709-2.67648 1.79369-3.64648 3.17969-.979 1.382-1.63627 3.0332-1.94727 4.7832l3.18945.07422c-.231-1.333-.20054-2.7653.18946-4.1543C24.16616 49.49081 24.92 48.137 26 47zm28 0c1.08 1.137 1.83384 2.49081 2.21484 3.88281.39 1.389.41946 2.8213.18946 4.1543l3.18945-.07422c-.311-1.751-.96827-3.4012-1.94727-4.7832C56.67648 48.79369 55.396 47.709 54 47zm-13.99805 1S35 49.737 35 51h10c0-1.662-4.99805-3-4.99805-3zM50 51.99805c-.25738 0-.51594.09601-.71094.29101-.391.39-.391 1.03188 0 1.42188.2.19.45094.28906.71094.28906s.51094-.09906.71094-.28906c.39-.39.39-1.02188 0-1.42188-.1955-.195-.45356-.29101-.71094-.29101zm-20.0879.0078c-.255.02376-.50358.14352-.68358.35352-.349.42-.29914 1.05016.13086 1.41016.191.16.41062.23047.64062.23047.29 0 .56953-.11937.76953-.35938.35-.42.28914-1.05015-.13086-1.41015-.21-.175-.47156-.24836-.72656-.22461zm15.22267 1.00196c-.1283-.0186-.26229-.01351-.39454.02149-.53.15-.85193.70047-.71093 1.23047.119.45.5307.74023.9707.74023.08 0 .17077-.0093.25977-.0293.53-.15.84898-.69047.70898-1.23047-.1125-.3975-.4491-.67664-.83398-.73242zm-10.33594.01172c-.38386.07781-.6968.37852-.7793.79102-.10376.54627.24454 1.06059.78125 1.16992.07.01.13822.01953.19922.01953.47 0 .88047-.33078.98047-.80078.111-.55-.2393-1.06969-.7793-1.17969-.13775-.0275-.27439-.02594-.40234 0zm18.02539 1.8086c-.255 0-.51008.09601-.70508.29101-.391.39-.391 1.02992 0 1.41992.199.19.44994.29102.71094.29102.25 0 .50922-.10102.69922-.29102.39-.39.39-1.02992 0-1.41992-.195-.195-.45008-.29102-.70508-.29102zm-25.48047.24804c-.25487.02375-.49883.14352-.67383.35352-.35.43-.29914 1.06015.13086 1.41015.179.16.40967.23047.63867.23047.281 0 .57149-.11937.77149-.35937.349-.42.28914-1.05016-.13086-1.41016-.2155-.175-.48146-.24836-.73633-.2246zM46.16797 56.875c-.1289-.01781-.26344-.0096-.39844.0254-.529.14-.84898.68874-.70898 1.21874.12.45.52875.75.96875.75.09 0 .16976-.01906.25976-.03906.529-.14.85094-.6907.71094-1.2207-.1125-.405-.44531-.68094-.83203-.73438zm-12.1543.06445c-.38231.07782-.7007.37852-.7832.79102-.1.54.24906 1.06992.78906 1.16992.06.02.12917.01953.20117.01953.459 0 .87947-.33078.98047-.80078.1-.54-.25101-1.06969-.79101-1.17969a.99041.99041 0 0 0-.39649 0zm13.1875 3.79883c-.12969-.0186-.26539-.01351-.40039.02149-.53.15-.85094.69046-.71094 1.23046h.00977c.11.45.51998.74024.95898.74024.09 0 .16977-.01125.25977-.03125.53-.15.85094-.69852.71094-1.22852-.105-.3975-.43907-.67664-.82813-.73242zm-13.57031.1211c-.54-.1-1.07264.25101-1.18164.79101-.111.54.2393 1.06969.7793 1.17969.071.01.14117.00976.20117.00976.469 0 .88947-.32078.98047-.80078.11-.54-.2393-1.06968-.7793-1.17968zm14.5996 3.74609c-.12966-.01781-.26538-.00961-.40038.02539-.53.14-.84922.68875-.69922 1.21875.11.45.51898.75.95898.75.09 0 .16977-.01906.25977-.03906.53-.14.84998-.6907.70898-1.2207-.10425-.405-.4391-.68094-.82812-.73438zm-15.7871.1836c-.38156.07734-.69844.37624-.77344.78124-.111.54.2393 1.06969.7793 1.17969.07.01.13117.01953.20117.01953.459 0 .88047-.3286.98047-.8086.11-.54-.25102-1.06187-.79102-1.17187-.135-.0275-.2693-.02578-.39648 0z"/>
</svg>