<svg xmlns="http://www.w3.org/2000/svg" xml:space="preserve" style="enable-background:new 0 0 444.38 444.38" viewBox="0 0 444.38 444.38">
  <path d="M198.031 192.065c-17.781 0-31.189 7.406-31.189 17.228 0 9.822 13.408 17.228 31.188 17.228s31.188-7.406 31.188-17.228c-.001-9.821-13.408-17.228-31.187-17.228zm-.002 24.456c-13.763 0-21.188-5.13-21.188-7.228 0-1.148 2.241-3.203 6.515-4.83v.898c0 2.761 2.239 5 5 5s5-2.239 5-5v-3.084c1.467-.134 3.023-.211 4.675-.211 1.651 0 3.205.078 4.672.211v3.085c0 2.761 2.239 5 5 5s5-2.239 5-5v-.898c4.274 1.627 6.515 3.682 6.515 4.831-.001 2.096-7.426 7.226-21.189 7.226zm77.023 126.229c-1.135 0-2.276-.384-3.213-1.171-2.115-1.776-2.389-4.93-.613-7.044l26.272-31.276c1.776-2.114 4.931-2.388 7.044-.613 2.115 1.776 2.389 4.93.613 7.044l-26.272 31.276c-.989 1.177-2.406 1.784-3.831 1.784zm10.515 9.258c-1.577 0-3.127-.744-4.1-2.133-1.584-2.262-1.034-5.38 1.228-6.963l31.777-22.248c2.262-1.585 5.379-1.034 6.963 1.228 1.584 2.262 1.034 5.38-1.228 6.963l-31.777 22.248c-.872.612-1.873.905-2.863.905zm5.253 13.012c-1.93 0-3.768-1.124-4.587-3.006-1.102-2.532.058-5.478 2.59-6.58l39.382-17.137c2.529-1.101 5.478.057 6.58 2.59 1.102 2.532-.058 5.478-2.59 6.58l-39.382 17.137c-.65.282-1.327.416-1.993.416z"/>
  <path d="M419.533 334.6c-12.303-17.191-37.725-17.369-56.246-14.712-.479-.503-.995-.975-1.535-1.417 16.282-9.975 40.938-17.567 52.085-20.288 2.061-.504 3.582-2.254 3.79-4.366.209-2.112-.938-4.125-2.862-5.023-29.065-13.558-63.225-2.872-83.623 6.301 19.94-22.246 55.744-42.35 56.188-42.597 1.945-1.083 2.939-3.322 2.439-5.491-.5-2.169-2.374-3.747-4.596-3.87-22.494-1.247-45.204 5.306-67.498 19.467-8.075 5.129-16.104 11.272-24.041 18.361-5.901-1.589-12.046-2.977-18.321-4.107-22.664-4.081-22.691-25.012-22.681-25.877.001-.037-.027-21.533-.027-21.533 1.754-3.221 3.51-6.273 5.496-9.065 5.937-8.351 10.652-17.881 14.404-27.883 5.431 1.537 11.053 1.342 11.449 1.337 13.52-.168 19.84-22.811 22.405-36.293 0 0 4.336-22.756.063-28.57-.036-.049-.078-.091-.115-.139 8.093-1.206 14.766-2.542 19.899-3.989 7.15-2.017 14.459-4.925 14.459-11.204s-7.309-9.187-14.459-11.204c-7.182-2.026-17.364-3.833-30.262-5.372-5.132-.612-10.604-1.168-16.348-1.67-.061-7.89-.442-24.686-2.408-41.955-3.849-33.808-11.723-51.098-24.071-52.859-21.182-3.021-47.695 6.584-55.089 9.497-7.391-2.914-33.901-12.522-55.09-9.497-12.347 1.761-20.22 19.052-24.07 52.859-1.965 17.259-2.347 34.057-2.408 41.955-5.744.502-11.216 1.059-16.348 1.671-12.898 1.539-23.08 3.346-30.262 5.372-7.15 2.017-14.459 4.925-14.459 11.204s7.309 9.187 14.459 11.204c5.133 1.448 11.805 2.783 19.898 3.989-.036.048-.078.089-.114.138-4.272 5.813.063 28.57.063 28.57 2.564 13.482 8.885 36.125 22.403 36.293.395.005 6.782-.048 11.442-1.356 3.753 10.009 8.47 19.546 14.411 27.902 1.985 2.792 3.741 5.844 5.495 9.065 0 0-.027 21.497-.027 21.534.019.887.187 21.759-22.682 25.877-29.114 5.243-96.83 23.746-96.83 82.176v80.345c0 2.761 2.239 5 5 5h338.234c2.761 0 5-2.239 5-5v-91.333c21.292-10.439 41.049-5.941 42.128-5.682 2.03.5 4.16-.319 5.333-2.052 1.177-1.732 1.147-4.012-.071-5.713zm-24.612-41.401c-9.759 3.137-22.172 7.743-33.058 13.663l-6.168-10.101c12.16-3.491 25.958-5.601 39.226-3.562zm-29.407-39.033c-9.109 5.991-20.526 14.142-30.754 23.334l-10.132-7.327c12.576-7.766 26.292-13.622 40.886-16.007zm-68.979-98.491c-3.682 19.362-9.646 28.124-12.705 28.162-4.318.056-6.617-.236-8.093-.791 4.645-14.98 7.376-30.504 8.96-44.374 2.138-2.743 6.947-5.211 11.076-4.74.939.108 2.15.364 2.592.964 1.691 2.301-1.83 20.779-1.83 20.779zM128.806 54.573c3.573-31.383 10.373-43.354 15.545-44.091 21.525-3.07 51.316 9.423 51.719 9.593 1.303.555 2.707.507 3.914-.007l.003.007c.298-.127 30.11-12.673 51.719-9.594 5.167.737 11.962 12.686 15.538 44.011 1.832 16.049 2.251 32.062 2.339 40.105-21.384-1.547-45.943-2.376-71.555-2.376-25.612 0-50.17.828-71.554 2.376.088-8.027.506-23.99 2.332-40.024zm-60.989 59.069c4.305-1.746 14.635-4.654 38.725-7.239 25.12-2.696 57.61-4.181 91.487-4.181 33.878 0 66.369 1.485 91.488 4.181 24.09 2.585 34.42 5.493 38.725 7.239-4.305 1.746-14.635 4.654-38.725 7.239-25.119 2.696-57.61 4.18-91.488 4.18-33.877 0-66.368-1.484-91.487-4.18-24.091-2.585-34.421-5.493-38.725-7.239zM248.05 140.18c0 5.704-4.643 10.344-10.349 10.344-5.702 0-10.341-4.64-10.341-10.344 0-.443.028-.882.085-1.317h20.519c.058.434.086.874.086 1.317zm-79.353 0c0 5.704-4.641 10.344-10.345 10.344-5.703 0-10.343-4.64-10.343-10.344 0-.443.028-.883.085-1.317h20.518c.056.434.085.874.085 1.317zm-56.47 43.657c-3.058-.038-9.021-8.8-12.704-28.162 0 0-3.521-18.48-1.83-20.78.44-.6 1.651-.855 2.589-.963 4.131-.483 8.952 2.01 11.081 4.764 1.585 13.861 4.314 29.372 8.954 44.34-1.472.559-3.766.854-8.09.801zm8.514-51.589c2.277.184 4.605.356 6.961.523-.079.352-.127.715-.127 1.091 0 2.761 2.239 5 5 5h5.481c-.028.437-.047.876-.047 1.317 0 11.218 9.126 20.344 20.343 20.344 11.218 0 20.345-9.126 20.345-20.344 0-.441-.019-.88-.047-1.317h3.766v26.371c-7.526 2.173-13.054 9.093-13.054 17.31 0 2.761 2.239 5 5 5s5-2.239 5-5c0-2.775 1.411-5.227 3.553-6.676.804 1.685 2.509 2.858 4.501 2.858 2.761 0 5-2.239 5-5v-34.863h11.229v34.863c0 2.761 2.239 5 5 5 1.988 0 3.691-1.169 4.497-2.851 2.144 1.446 3.558 3.893 3.558 6.668 0 2.761 2.239 5 5 5s5-2.239 5-5c0-8.216-5.529-15.134-13.055-17.309v-26.372h3.764c-.028.438-.047.876-.047 1.317 0 11.218 9.125 20.344 20.341 20.344 11.22 0 20.349-9.126 20.349-20.344 0-.441-.019-.88-.047-1.317h5.481c2.761 0 5-2.239 5-5 0-.376-.049-.739-.127-1.091 2.355-.167 4.683-.339 6.96-.523-2.209 22.554-8.341 58.397-25.364 82.339-3.015 4.24-5.511 8.904-7.924 13.415-8.172 15.275-15.891 29.702-44 29.703-28.108-.001-35.827-14.428-43.999-29.703-2.413-4.511-4.908-9.175-7.923-13.415-17.026-23.94-23.158-59.783-25.368-82.338zM248.584 270.86c-1.536 10.891-21.859 22.474-50.555 22.474-28.696 0-49.021-11.584-50.554-22.475 4.56-7.055 6.044-14.824 5.949-20.027l.005-4.185c8.086 11.475 20.115 21.057 44.598 21.058h.003c24.483-.001 36.513-9.583 44.599-21.058l.005 4.185c-.095 5.204 1.389 12.973 5.95 20.028zM122.515 286.7c7.272-1.31 12.938-4.025 17.327-7.467 7.307 14.079 30.246 24.101 58.187 24.101 27.937 0 50.884-10.018 58.195-24.094 4.388 3.439 10.052 6.151 17.318 7.46 3.88.699 7.701 1.506 11.447 2.393-6.371 6.305-12.67 13.227-18.872 20.746-1.85 2.242-3.645 4.484-5.39 6.718H53.237c20.476-18.799 52.164-26.775 69.278-29.857zM98.003 434.38H33.912v-25.859h64.091v25.859zm-64.091-35.859v-30.982h59.624c3.197 10.016 4.297 22.259 4.51 30.982H33.912zm59.389-51.52c-1.953-1.952-5.118-1.952-7.071 0-1.953 1.953-1.953 5.119 0 7.071 1.005 1.005 1.927 2.173 2.775 3.466H33.941c.297-12.24 4.213-22.46 10.35-30.982H253.2c-8.266 11.392-15.066 22.155-20.255 30.982H100.342c-1.87-4.039-4.176-7.672-7.041-10.537zm133.969 20.538c-1.671 3.057-3.019 5.631-4.034 7.617l-7.778-3.752c-2.008-.969-4.417-.49-5.903 1.174L186.4 398.521h-78.365c-.171-7.685-.992-19.79-4.089-30.982H227.27zM108.003 434.38v-25.859h69.471l-23.081 25.859h-46.39zm59.795 0 12.545-14.055 29.94 14.055h-42.485zm66.017 0-46.524-21.84 27.216-30.492 53.936 26.02-21.54 26.311h-13.088zm54.24 0h-28.229s20.83-25.517 20.998-25.859h7.231v25.859zm74.091 0h-64.091v-25.859h64.091v25.859zm0-35.859h-64.091v-2.629c16.159-5.706 34.985-14.688 49.482-28.353h14.609v30.982zm0-40.982h-4.342c1.439-1.233 2.887-2.4 4.342-3.46v3.46zm-17.785-.95c-25.283 27.19-71.815 36.522-80.667 38.085l-31.437-15.166c5.329-10.35 20.059-37.258 41.702-63.462 11.21-13.572 25.371-28.204 41.787-39.956l11.664 8.435c-6.974 7.135-12.822 14.688-16.123 22.207-.885 2.015-.348 4.372 1.323 5.805 1.67 1.434 4.082 1.604 5.939.424.242-.154 11.502-7.208 27.378-13.01l7.384 12.093c-6.602 4.504-11.97 9.595-14.788 15.231-.9 1.801-.631 3.966.681 5.494 1.313 1.527 3.414 2.117 5.331 1.5.188-.061 7.261-2.298 16.889-3.95l3.747 10.052c-7.012 3.772-14.101 9.003-20.81 16.218zm29.933-20.377-2.696-7.231c9.027-.804 18.841-.574 26.961 2.292-6.961.307-15.381 1.584-24.265 4.939z"/>
</svg>