<svg xmlns="http://www.w3.org/2000/svg" xml:space="preserve" style="enable-background:new 0 0 391.897 391.897" viewBox="0 0 391.897 391.897">
  <path d="M94.756 109.093c1.876 1.875 4.419 2.929 7.071 2.929s5.195-1.054 7.071-2.929l30.078-30.078c5.905-5.906 9.158-13.758 9.158-22.11s-3.253-16.204-9.159-22.11c-10.041-10.04-25.268-11.81-37.137-5.314-4.559-2.51-9.702-3.844-15.05-3.844-8.353 0-16.204 3.252-22.11 9.158-5.905 5.906-9.158 13.758-9.158 22.11s3.253 16.204 9.158 22.11l30.078 30.078zM78.821 48.938c2.128-2.128 4.958-3.3 7.968-3.3 3.009 0 5.839 1.172 7.967 3.3 3.906 3.905 10.236 3.905 14.143 0 4.393-4.393 11.543-4.393 15.936 0 2.129 2.128 3.301 4.958 3.301 7.968s-1.172 5.84-3.301 7.968L101.827 87.88 78.821 64.874c-4.393-4.394-4.393-11.542 0-15.936z"/>
  <path d="M368.969 71.805c-14.786-14.786-34.443-22.929-55.351-22.929-17.745 0-34.579 5.855-48.297 16.652-30.699-24.081-75.379-21.988-103.646 6.28-14.784 14.795-22.927 34.455-22.927 55.358 0 4.743.432 9.454 1.276 14.085-4.734 2.357-9.241 5.2-13.453 8.514-30.697-24.079-75.376-21.989-103.641 6.276C8.144 170.827 0 190.487 0 211.398s8.144 40.572 22.931 55.358l96.574 96.574c1.876 1.875 4.419 2.929 7.071 2.929s5.195-1.053 7.071-2.929l96.574-96.574c2.665-2.664 5.082-5.482 7.281-8.413l20.754 20.754c1.876 1.875 4.419 2.929 7.071 2.929s5.196-1.054 7.071-2.929l96.566-96.577c14.788-14.777 22.932-34.435 22.932-55.354.001-20.914-8.141-40.575-22.927-55.361zM126.576 342.118l-89.503-89.503C26.063 241.605 20 226.967 20 211.398c0-15.569 6.063-30.207 17.073-41.216 11.363-11.363 26.289-17.045 41.216-17.045 14.926 0 29.853 5.682 41.216 17.045 3.906 3.905 10.236 3.905 14.143 0 11.009-11.009 25.646-17.072 41.216-17.072s30.207 6.063 41.216 17.072c22.727 22.727 22.727 59.706 0 82.432l-89.504 89.504zm228.25-173.743-89.498 89.508-17.683-17.683c11.089-28.138 5.291-61.447-17.423-84.16-14.787-14.787-34.446-22.93-55.358-22.93-5.31 0-10.535.536-15.624 1.561-.32-2.48-.491-4.985-.491-7.505 0-15.564 6.063-30.203 17.071-41.219 22.727-22.727 59.709-22.729 82.438 0 1.876 1.875 4.419 2.929 7.071 2.929h.002c2.653 0 5.197-1.055 7.072-2.932 10.997-11.007 25.635-17.068 41.216-17.068 15.565 0 30.2 6.063 41.208 17.071 11.009 11.009 17.071 25.647 17.071 41.219-.001 15.574-6.062 30.207-17.072 41.209z"/>
</svg>