
<svg xmlns="http://www.w3.org/2000/svg" aria-hidden="true" viewBox="0 0 12 12"><rect width="100%" height="100%" fill="none"/><g class="currentLayer"><path fill="#fff" d="M5.1 12l-2-.7a6 6 0 01-3-3.9c-.2-.6-.1-2.3 0-3 .6-2 2.1-3.5 4-4.1C4.8 0 5.2 0 6 0c.6 0 .9 0 1.4.2a6 6 0 014.3 4.4c.2.7.2 2.2 0 2.9a6 6 0 01-6.7 4.4zM7 11c1-.2 2-.7 2.8-1.4.4-.4.6-.8.6-1l-.8-1.5h-.3l-.3.7a3.3 3.3 0 01-5.7.2c-.3-.5-.3-.5-.7.5-.3 1-.3 1 .3 1.5 1.1.9 2.7 1.3 4.1 1zm.2-2.4c1.5-.8 1.9-2.8.6-4-1-.9-2.4-1-3.3 0-.4.2-.7.8-.8 1.3-.2 1 .4 2.3 1.5 2.8h1l1-.1zM2.8 5.8a36 36 0 001.6-4.6c0-.2-.2-.2-.8.1A5.3 5.3 0 001 4.6 4 4 0 00.8 6c0 1 0 1.1.2 1.5.2.7.5 1.2.6 1.1l1.2-2.8zM11 7.3l.2-1c0-.9 0-1-.2-1.6a5.3 5.3 0 00-2.4-3.2C8 1 6.7.7 6.4.9V1a302.6 302.6 0 004.4 6.6s.2-.1.2-.3zm-6-4h1.1l.7-.1c0-.2-1.2-2-1.3-2-.1 0-.2 0-.5 1-.6 1.5-.6 1.4 0 1.2z"/></g></svg>