<svg xmlns="http://www.w3.org/2000/svg" xml:space="preserve" style="enable-background:new 0 0 444.676 444.676" viewBox="0 0 444.676 444.676">
  <path d="m443.305 369.556-75.462-65.811V74.992c34.605-3.688 68.305-15.166 66.799-30.356-.597-6.007-6.243-10.604-16.783-13.664-8.872-2.575-20.751-3.937-34.354-3.937-5.092 0-10.341.202-15.662.585V17.315c0-2.209-1.791-4-4-4s-4 1.791-4 4v11.018c-34.606 3.688-68.305 15.167-66.798 30.357.597 6.007 6.242 10.604 16.781 13.663 8.871 2.575 20.749 3.938 34.352 3.938h.003c5.092 0 10.34-.202 15.662-.586v228.04l-42.87 37.383c.432-3.701.661-7.463.661-11.278v-26.898c0-22.103-7.454-42.491-19.97-58.802v-29.983h55.909c2.209 0 4-1.791 4-4v-41.08c0-2.209-1.791-4-4-4H319.4c.552-1.329.71-2.741.288-4.23v-.001l.003-.001-13.256-46.762c-1.653-5.832-10.19-6.06-16.461-5.716-7.653.414-17.413 2.214-27.48 5.067-6.762 1.917-40.328 12.063-37.056 23.608l3.31 11.678H212.39l2.541-13.441c2.644-13.998-42.415-22.935-47.562-23.907s-50.35-9.1-52.996 4.899l-6.003 31.757c-9.059.301-17.428.882-24.288 1.681V92.536l11.435-11.322c1.454.258 2.915.507 4.385.744 14.118 2.283 28.252 3.489 40.874 3.489 13.361 0 24.872-1.334 33.289-3.858 9.996-2.998 15.563-7.6 16.545-13.677 1.365-8.449-6.784-17.141-23.567-25.137-15.132-7.209-35.763-13.168-58.092-16.777-.175-.028-.35-.052-.524-.08v-8.604c0-2.209-1.791-4-4-4s-4 1.791-4 4v7.447c-11.228-1.472-22.272-2.253-32.35-2.253-13.361 0-24.872 1.334-33.289 3.858-9.996 2.998-15.563 7.6-16.545 13.677-1.365 8.449 6.784 17.141 23.567 25.137 11.935 5.686 27.297 10.588 44.208 14.179l-61.242 60.636c-1.569 1.555-1.582 4.087-.028 5.657.782.79 1.813 1.186 2.843 1.186 1.017 0 2.034-.386 2.814-1.157l45.678-45.226v50.412c-8.131 1.442-13.047 3.447-13.047 7.844v92.362c0 3.899 3.559 6.159 13.047 7.849v45.474l-74.712 65.16c-1.665 1.452-1.838 3.979-.386 5.644.791.907 1.9 1.371 3.017 1.371.933 0 1.869-.324 2.627-.985l50.475-44.02 18.979 10.217v10.264c0 2.209 1.791 4 4 4s4-1.791 4-4v-9.457l20.477-11.023 21.667 18.897c.001.007.003.014.005.02l-23.344 75.697c-.651 2.111.532 4.35 2.644 5.001.393.121.789.179 1.18.179 1.709 0 3.291-1.104 3.821-2.822l19.825-64.285c13.905 36.442 49.199 62.407 90.466 62.407 41.685 0 77.301-26.483 90.908-63.507l20.165 65.385c.53 1.719 2.112 2.822 3.821 2.822.39 0 .787-.058 1.18-.179 2.111-.651 3.295-2.89 2.644-5.001l-22.874-74.171 23.447-20.446 19.73 10.621v10.621c0 2.209 1.791 4 4 4s4-1.791 4-4v-10.621l19.729-10.62 50.475 44.02c.758.661 1.694.985 2.627.985 1.116 0 2.226-.464 3.017-1.371 1.45-1.664 1.277-4.191-.388-5.643zM45.252 57.96c-14.94-7.118-19.633-13.411-19.11-16.638.868-5.373 15.552-10.813 41.936-10.813 12.202 0 25.895 1.171 39.597 3.386 21.602 3.493 41.463 9.212 55.928 16.103 14.94 7.118 19.633 13.411 19.11 16.638-.868 5.373-15.552 10.813-41.936 10.813-11.799 0-24.994-1.105-38.243-3.18l5.893-5.835V53.978c0-2.209-1.791-4-4-4s-4 1.791-4 4v11.117l-7.568 7.493c-18.348-3.526-35.021-8.632-47.607-14.628zm30.831 274.737-12.537-6.75 12.537-10.934v17.684zm0-81.898c-2.302-.449-4.006-.905-5.047-1.34v-84.006c1.496.408 3.197.762 5.047 1.09v84.256zm261.521-77.713h11.97v33.08h-11.97v-33.08zm-8 0v33.08H263.43v-17.507c5.894-.866 12.478-2.295 19.198-4.2 10.065-2.854 19.316-6.442 26.048-10.104.724-.394 1.477-.818 2.233-1.269h18.695zm-39.94 41.08v20.812c-8.624-8.729-18.88-15.842-30.283-20.812h30.283zm-9.218-37.405c-10.886 3.086-21.265 4.855-28.476 4.855-2.08 0-3.497-.153-4.438-.328 3.329-2.97 13.496-8.589 30.403-13.381 10.886-3.086 21.265-4.855 28.476-4.855 2.08 0 3.497.153 4.438.328-3.327 2.97-13.493 8.588-30.403 13.381zm-25.016 12.746v16.658h-11.97v-17.732c3.113 1.174 6.822 1.184 8.511 1.184h.001c1.091 0 2.25-.039 3.458-.11zm54.335-34.338c-1.373-.113-2.578-.117-3.353-.117-7.918 0-19.092 1.88-30.657 5.158-4.701 1.332-22.342 6.643-31.572 13.632l-4.851-17.113h5.073c2.209 0 4-1.791 4-4s-1.791-4-4-4h-6.793c2.584-2.777 12.92-8.813 30.938-13.921 19.132-5.424 31.465-5.416 34.254-4.191l6.961 24.552zm-10.836-38.225 1.453 5.127c-2.207-.183-4.489-.137-6.532-.027-1.868.101-3.865.288-5.958.549l-1.663-5.865c6.773-.747 11.167-.452 12.7.216zm-34.253 4.196c5.013-1.421 9.546-2.462 13.577-3.213l1.687 5.948c-4.343.836-8.918 1.917-13.57 3.236-5.145 1.458-10.074 3.11-14.566 4.865l-1.681-5.93c4.116-1.642 8.954-3.319 14.553-4.906zm-21.944 8.173 1.6 5.644c.019.067.05.128.073.193-1.442.683-2.806 1.374-4.079 2.067-1.798.978-3.764 2.136-5.547 3.45l-1.453-5.126c.885-1.274 4.034-3.57 9.406-6.228zm-17.912 27.416h6.196l4.443 15.674v34.859c-3.49-.532-7.039-.883-10.64-1.03v-49.503zm83.69 132.121c-15.465-32.943-48.953-55.812-87.688-55.812-38.74 0-72.232 22.876-87.694 55.825 6.772-42.297 43.516-74.72 87.697-74.72 44.172 0 80.909 32.416 87.685 74.707zm-91.69-132.121v49.503c-11.964.489-23.37 3.169-33.84 7.632v-11.312c12.953-.166 19.766-2.824 20.769-8.127v-.002l.004.001 7.126-37.695h5.941zm-14.04-25.775c2.331 1.333 3.735 2.473 4.211 3.274l-.842 4.453c-1.447-.976-2.964-1.82-4.353-2.52l.984-5.207zm-33.64-11.068c11.206 2.294 19.923 5.014 26.165 7.536l-1.032 5.458c-7.362-2.843-16.435-5.41-26.189-7.41l1.056-5.584zm-35.025-3.741c6.591-.174 15.72.369 27.159 2.276l-1.055 5.584c-9.904-1.65-19.315-2.493-27.131-2.426l1.027-5.434zm-11.961 2.046c.592-.46 1.828-.905 3.671-1.265l-.967 5.115c-1.148.142-2.351.336-3.546.603l.842-4.453zm-2.542 13.453c2.612-2.056 17.938-3.833 43.73 1.043 25.802 4.877 39.423 12.126 41.105 14.994l-.198 1.049h-7.951c-2.209 0-4 1.791-4 4s1.791 4 4 4h6.439l-5.227 27.648c-3.084-2.08-6.499-3.562-8.276-4.332-8.644-3.745-20.378-7.127-33.04-9.521-11.097-2.097-22.083-3.252-30.935-3.252-5.086 0-9.27.364-12.588 1.095l6.941-36.724zm5.647 43.629c8.368 0 18.826 1.105 29.448 3.113 24.261 4.586 37.759 11.271 40.68 14.435-1.589.724-5.612 1.748-13.7 1.748-8.369 0-18.828-1.105-29.449-3.113-24.259-4.586-37.758-11.271-40.679-14.434 1.589-.725 5.612-1.749 13.7-1.749zM84.083 157.78c5.861-.715 13.477-1.335 22.765-1.685l-.98 5.185c-8.844-.355-16.132-.957-21.785-1.646v-1.854zm0 9.915c2.478.287 5.148.546 7.976.774v5.56c0 2.209 1.791 4 4 4s4-1.791 4-4v-5.02c1.414.078 2.846.151 4.308.214l-1.17 6.191v.002c-1.413 7.477 10.576 12.672 14.516 14.379 8.644 3.745 20.377 7.127 33.039 9.521 8.439 1.595 16.808 2.641 24.229 3.052v15.35c-15.529 8.384-28.524 20.879-37.504 36.028-4.735.159-9.587.244-14.469.244-16.335 0-29.683-.858-38.925-1.976v-84.319zm0 165.808v-19.796l14.034 12.241-14.034 7.555zm39.923-30.552s.004 26.256.004 26.898c0 2.826.129 5.621.367 8.386l-40.294-35.144V260.07c10.584 1.239 24.338 1.92 38.925 1.92 3.41 0 6.804-.043 10.161-.12-5.873 12.479-9.163 26.402-9.163 41.081zm96.816 115.71c-48.972 0-88.813-39.841-88.813-88.812s39.841-88.812 88.813-88.812c48.971 0 88.812 39.841 88.812 88.812s-39.841 88.812-88.812 88.812zM359.843 333.1l-13.288-7.154 13.288-11.587V333.1zm4-285.437c-2.209 0-4 1.791-4 4V67.69c-5.329.398-10.577.601-15.662.601h-.003c-31.529-.001-42.849-7.136-43.172-10.391-.614-6.189 23.52-18.034 61.294-21.783 7.23-.718 14.364-1.081 21.205-1.081 31.532 0 42.853 7.136 43.176 10.391.6 6.054-22.482 17.512-58.838 21.519V51.663c0-2.209-1.791-4-4-4zm4 285.437v-18.74l13.287 11.587-13.287 7.153z"/>
</svg>