<?xml version="1.0" encoding="iso-8859-1"?>
<!-- Generator: Adobe Illustrator 18.0.0, SVG Export Plug-In . SVG Version: 6.00 Build 0)  -->
<!DOCTYPE svg PUBLIC "-//W3C//DTD SVG 1.1//EN" "http://www.w3.org/Graphics/SVG/1.1/DTD/svg11.dtd">
<svg version="1.1" id="Capa_1" xmlns="http://www.w3.org/2000/svg" xmlns:xlink="http://www.w3.org/1999/xlink" x="0px" y="0px"
	 viewBox="0 0 445.329 445.329" style="enable-background:new 0 0 445.329 445.329;" xml:space="preserve">
<g>
	<g>
		<g>
			<path d="M278.093,147.529c-11.237,0-20.039-7.007-20.039-15.953c0-2.761,2.238-5,5-5s5,2.239,5,5
				c0,2.815,4.123,5.953,10.039,5.953c5.915,0,10.037-3.137,10.037-5.953c0-2.761,2.238-5,5-5c2.762,0,5,2.239,5,5
				C298.13,140.522,289.328,147.529,278.093,147.529z"/>
		</g>
		<g>
			<g>
				<path d="M306.564,111.904c-1.31,0-2.6-0.54-3.529-1.47c-0.931-0.93-1.471-2.22-1.471-3.53c0-1.32,0.54-2.61,1.471-3.54
					c0.93-0.93,2.22-1.46,3.529-1.46c1.32,0,2.61,0.53,3.54,1.46c0.931,0.93,1.46,2.22,1.46,3.54c0,1.31-0.529,2.6-1.46,3.53
					C309.175,111.364,307.885,111.904,306.564,111.904z"/>
			</g>
			<g>
				<path d="M249.615,111.904c-1.32,0-2.61-0.54-3.54-1.47c-0.931-0.93-1.46-2.22-1.46-3.53c0-1.32,0.529-2.61,1.46-3.54
					c0.93-0.93,2.22-1.46,3.54-1.46c1.31,0,2.6,0.53,3.529,1.46c0.931,0.93,1.471,2.22,1.471,3.54c0,1.31-0.54,2.6-1.471,3.53
					C252.215,111.364,250.925,111.904,249.615,111.904z"/>
			</g>
		</g>
	</g>
	<path d="M302.68,203.882h-49.178c-2.762,0-5,2.239-5,5v35.224c0,2.014,1.208,3.831,3.064,4.61l24.572,10.317
		c0.632,0.265,1.288,0.391,1.934,0.391c0.681,0,1.346-0.148,1.962-0.411l0.009,0.02l24.572-10.317
		c1.856-0.78,3.064-2.597,3.064-4.61v-35.224C307.68,206.12,305.442,203.882,302.68,203.882z M297.68,240.783l-19.589,8.225
		l-19.589-8.225v-26.901h19.572c0.006,0,0.011-0.002,0.017-0.002c0.006,0,0.011,0.002,0.017,0.002h19.572V240.783z"/>
	<path d="M322.846,80.34l1.692-0.908c2.434-1.305,3.349-4.337,2.043-6.77c-1.306-2.434-4.337-3.347-6.77-2.043l-2.947,1.581
		l-3.561-4.847l2.534-2.331c2.032-1.869,2.165-5.032,0.296-7.065c-1.871-2.034-5.032-2.165-7.066-0.296l-1.723,1.584l-0.635-0.864
		c-1.634-2.225-4.765-2.703-6.99-1.069c-2.225,1.635-2.703,4.765-1.068,6.99l1.287,1.752l-2.162,1.989
		c-2.032,1.869-2.165,5.032-0.296,7.065c0.986,1.072,2.332,1.616,3.682,1.616c1.21,0,2.423-0.436,3.384-1.319l1.35-1.242
		l2.066,2.813l-1.343,0.72c-2.434,1.305-3.349,4.337-2.043,6.77c0.902,1.682,2.628,2.638,4.41,2.638
		c0.798,0,1.607-0.191,2.359-0.595l2.598-1.394l2.734,3.721c0.979,1.334,2.496,2.04,4.033,2.04c1.028,0,2.065-0.316,2.957-0.971
		c2.225-1.635,2.703-4.765,1.068-6.99L322.846,80.34z"/>
	<path d="M306.569,89.345c-11.359,0-20.602,7.875-20.602,17.556c0,0.198,0.027,0.391,0.035,0.587
		c-2.138-1.81-4.896-2.907-7.91-2.907c-3.013,0-5.771,1.096-7.909,2.905c0.008-0.196,0.034-0.388,0.034-0.586
		c0-6.908-4.718-12.878-11.542-15.743l1.881-7.313l4.952-0.289c2.757-0.161,4.861-2.526,4.7-5.283
		c-0.16-2.757-2.552-4.852-5.282-4.701l-1.754,0.103l2.001-7.781c0.688-2.674-0.923-5.4-3.598-6.088
		c-2.674-0.689-5.399,0.921-6.088,3.597l-2.8,10.883l-5.779,0.337c-2.757,0.161-4.861,2.526-4.7,5.283
		c0.154,2.658,2.358,4.709,4.986,4.709c0.099,0,0.197-0.003,0.296-0.008l2.582-0.151l-1.267,4.923
		c-10.986,0.365-19.798,8.072-19.798,17.521c0,6.816,4.592,12.723,11.27,15.63l-2.686,10.447c-0.688,2.675,0.922,5.4,3.597,6.088
		c0.417,0.107,0.836,0.159,1.249,0.159c2.227,0,4.258-1.499,4.839-3.755l2.838-11.035c6.42-0.133,12.11-2.783,15.786-6.825
		c0.369,2.397,2.423,4.239,4.924,4.239c2.762,0,5-2.239,5-5c0-1.25,1.018-2.268,2.268-2.268c1.249,0,2.266,1.017,2.266,2.268
		c0,2.761,2.238,5,5,5c2.501,0,4.555-1.842,4.924-4.239c3.771,4.155,9.66,6.847,16.287,6.847c11.362,0,20.605-7.876,20.605-17.556
		C327.175,97.221,317.931,89.345,306.569,89.345z M249.612,114.457c-5.748,0-10.604-3.46-10.604-7.556
		c0-4.096,4.855-7.556,10.604-7.556c5.749,0,10.605,3.46,10.605,7.556C260.218,110.997,255.361,114.457,249.612,114.457z
		 M306.569,114.457c-5.747,0-10.602-3.46-10.602-7.556c0-4.096,4.854-7.556,10.602-7.556c5.749,0,10.605,3.46,10.605,7.556
		C317.175,110.997,312.318,114.457,306.569,114.457z"/>
	<path d="M399.86,290.506c0.912-1.023,1.409-2.399,1.254-3.85l-2.083-19.444c-5.913-57.992-33.19-80.369-34.349-81.293
		c-0.209-0.167-21.768-11.979-24.917-13.688c5.299-3.58,14.788-11.041,23.145-23.122c11.15-16.12,22.32-43.859,12.208-84.462
		c-6.795-27.278-25.857-47.121-55.126-57.383c-21.155-7.417-40.194-7.286-41.904-7.261c-1.765-0.024-20.778-0.145-41.897,7.261
		c-29.268,10.263-48.329,30.105-55.124,57.383c-10.114,40.603,1.055,68.342,12.206,84.462c8.36,12.086,17.854,19.547,23.152,23.126
		c-2.142,1.161-24.701,13.504-24.927,13.684c-1.158,0.924-28.435,23.301-34.347,81.268l-2.084,19.469
		c-0.156,1.458,0.347,2.841,1.268,3.866c-5.491,4.994-11.455,13.235-11.368,25.441L37.824,343.843
		c-2.522,0.656-4.118,3.141-3.665,5.707c0.143,0.81,3.883,19.836,37.36,19.837c0.002,0,0.002,0,0.003,0
		c10.424,0,22.846-1.857,36.92-5.519l34.737-9.039c2.672-0.695,4.275-3.425,3.58-6.098l-1.001-3.846l14.791-3.848
		c1.077,0.297,2.292,0.508,3.666,0.508c2.264,0,4.91-0.539,7.861-2.067c1.193-0.617,2.267-1.393,3.196-2.272l16.816-4.375
		c7.52-1.957,12.046-9.669,10.09-17.191c-1.142-4.389-4.251-7.792-8.197-9.441c0.417-2.606,0.527-5.245,0.427-7.689
		c0.759-0.65,1.34-1.522,1.602-2.564l3.782-15.041c1.785-2.322,6.468-8.776,10.663-17.601l0.262,3.502
		c-1.655,3.638-6.193,13.915-7.44,19.859c-1.389,6.618,7.798,86.249,11.812,120.177c0.298,2.517,2.431,4.413,4.965,4.413h6.073
		c-3.715,4.612-5.947,10.475-5.947,16.853v12.221c0,2.761,2.239,5,5,5h43.517c2.762,0,5-2.239,5-5v-12.221
		c0-6.378-2.231-12.241-5.947-16.853h2.912c2.602,0,4.769-1.995,4.983-4.588l2.459-29.712l2.459,29.712
		c0.215,2.592,2.382,4.587,4.983,4.587h2.912c-3.716,4.612-5.947,10.475-5.947,16.853v12.221c0,2.761,2.238,5,5,5h43.516
		c2.762,0,5-2.239,5-5v-12.221c0-6.378-2.231-12.241-5.947-16.853h6.074c2.534,0,4.668-1.896,4.966-4.413
		c4.014-33.929,13.199-113.559,11.811-120.176c-1.246-5.944-5.784-16.221-7.44-19.86l0.258-3.449
		c4.189,8.797,8.856,15.23,10.639,17.547l3.783,15.042c0.265,1.054,0.855,1.935,1.627,2.587c-0.302,7.534,1.314,16.937,8.148,21.375
		c0.083,7.085,2.353,13.83,8.633,14.458l0.095,0.01c1.194,2.051,3.102,3.882,5.459,5.102c2.938,1.52,5.577,2.07,7.856,2.07
		c2.511,0,4.586-0.667,6.148-1.44c9.732-4.818,12.688-20.173,12.994-21.908c0.035-0.204,0.059-0.41,0.069-0.616
		C411.854,304.473,405.596,295.719,399.86,290.506z M342.193,157.597c-4.604,4.146-8.487,6.698-10.233,7.76h-9.344l-3.003-1.194
		l-2.015-4.251c15.975-13.993,26.531-36.229,27.22-61.391C348.393,116.845,347.526,136.637,342.193,157.597z M308.51,154.506
		c-0.078,0.056-0.149,0.116-0.224,0.175c-7.423,5.726-15.997,9.407-25.195,10.397v-4.777c0-2.761-2.238-5-5-5s-5,2.239-5,5v4.771
		c-28.976-3.109-51.784-32.932-51.784-69.164c0-4.835,0.422-9.61,1.219-14.267l4.035,4.008c0.976,0.969,2.249,1.453,3.524,1.453
		c1.285,0,2.57-0.493,3.547-1.476c1.946-1.959,1.936-5.124-0.023-7.071l-8.298-8.244c2.306-7.116,5.564-13.775,9.707-19.683
		c5.554-1.39,25.954-4.937,38.982,13.59c0.974,1.384,2.521,2.125,4.094,2.125c2.211,0,3.748-1.675,4.071-2.135l0.015,0.01
		c13.104-18.635,33.349-15.045,38.976-13.602c8.849,12.612,13.718,28.618,13.718,45.291c0,14.405-3.611,27.79-9.777,38.891
		l-4.209-2.184c-2.45-1.271-5.469-0.317-6.741,2.135c-1.271,2.451-0.315,5.469,2.136,6.741l3.32,1.723
		C316.315,147.523,312.591,151.326,308.51,154.506z M310.704,168.713l-4.611,17.02h-55.977l-4.641-17.136l1.228-2.589
		c9.361,5.957,20.043,9.346,31.381,9.348c0.002,0,0.005,0.001,0.007,0.001c11.322,0,21.991-3.38,31.344-9.321L310.704,168.713z
		 M200.736,142.287c-13.869-20.77-17.228-46.067-9.966-75.221c6.004-24.106,22.308-41.019,48.456-50.268
		c20.023-7.082,38.574-6.803,38.76-6.794c0.018,0,0.033-0.004,0.051-0.004c0.02,0,0.037,0.005,0.057,0.005
		c0.033,0,0.067,0,0.102-0.001c0.185-0.008,18.738-0.288,38.761,6.794c26.149,9.249,42.454,26.162,48.459,50.268
		c7.257,29.139,3.9,54.436-9.96,75.209c8.977-62.225-23.667-95.667-27.771-99.59l-0.009,0.009c-0.511-0.488-1.122-0.885-1.835-1.128
		c-10.215-3.477-32.209-4.892-47.75,11.854c-15.539-16.747-37.533-15.333-47.748-11.854c-0.713,0.243-1.324,0.639-1.834,1.128
		l-0.009-0.009C224.395,46.607,191.745,80.057,200.736,142.287z M214.009,157.637c-5.35-20.984-6.224-40.795-2.646-59.129
		c0.685,25.146,11.225,47.372,27.18,61.37l-2.053,4.33c-0.781,0.311-1.762,0.703-2.884,1.15h-9.391
		C222.469,164.303,218.606,161.776,214.009,157.637z M166.204,276.564l22.931,5.722l-1.613,6.415l-22.045-5.339L166.204,276.564z
		 M105.924,354.191c-13.253,3.448-24.826,5.197-34.401,5.197c-0.001,0-0.003,0-0.003,0c-14.891-0.001-21.808-4.128-24.971-7.482
		l84.952-22.105l4.322,16.61L105.924,354.191z M143.241,335.208l-2.063-7.926l20.768-5.404c0.223,3.289,0.944,5.886,2.185,7.895
		L143.241,335.208z M179.637,312.068c-2.216,0.705-3.653,2.854-3.467,5.172c0.213,2.661-0.05,5.863-0.551,7.284
		c-0.99,0.105-2.529,0.254-2.919,0.082c-0.013-0.013-1.266-1.527-0.664-8.458c0.016-0.102,0.45-1.844-0.974-3.827
		c-0.816-1.081-2.054-1.837-3.509-1.974c-0.791-0.075-1.548,0.057-2.244,0.323l-10.214,2.658
		c1.104-11.092,9.486-17.075,12.899-19.068l16.357,3.961C184.603,303.003,184.111,310.644,179.637,312.068z M189.571,323.154
		l-3.643,0.948c0.209-1.353,0.32-2.765,0.336-4.193c1.751-1.137,3.143-2.612,4.265-4.285c0.945,0.529,1.682,1.418,1.973,2.535
		C193.07,320.344,191.755,322.585,189.571,323.154z M193.192,272.992l-25.9-6.463c0.633-5.697,1.478-11.032,2.5-15.987l30.889,9.932
		C197.91,266.027,195.013,270.427,193.192,272.992z M204.628,251.239l-32.489-10.447c1.652-6.015,3.533-11.387,5.514-16.153
		l30.088,14.076C207.153,243.078,206.027,247.301,204.628,251.239z M209.276,228.393l-27.412-12.824
		c4.389-8.452,8.773-14.225,11.821-17.705l16.554,27.078L209.276,228.393z M201.631,191.69l13.883-7.596l3.013,11.141l-4.615,16.544
		L201.631,191.69z M263.698,435.329h-33.517v-2.221h33.517V435.329z M230.934,423.108c2.123-6.859,8.495-11.853,16.004-11.853
		c7.511,0,13.883,4.994,16.007,11.853H230.934z M266.059,401.255h-41.559c-0.858-7.304-1.78-15.273-2.714-23.49h46.216
		L266.059,401.255z M326.028,435.329h-33.516v-2.221h33.516V435.329z M293.265,423.108c2.123-6.859,8.495-11.853,16.005-11.853
		c7.51,0,13.882,4.994,16.005,11.853H293.265z M331.71,401.255h-41.559l-1.944-23.49h46.218
		C333.49,385.982,332.568,393.951,331.71,401.255z M335.554,367.765h-48.175l-4.274-51.643v-14.678c0-2.761-2.238-5-5-5
		c-2.762,0-5,2.239-5,5v14.678l-4.273,51.643h-48.174c-4.085-36.416-8.02-74.352-7.567-79.162
		c1.072-4.936,5.582-15.205,7.243-18.773c0.375-0.805,0.494-1.655,0.431-2.481l0.022-0.001l-2.536-33.914l10.276-36.835
		c0.242-0.866,0.246-1.781,0.011-2.649l-3.863-14.284l12.131-4.824l4.658,17.199c0.59,2.179,2.568,3.693,4.826,3.693h63.629
		c2.258,0,4.235-1.513,4.826-3.692l4.659-17.2l12.13,4.824l-3.863,14.284c-0.235,0.868-0.232,1.783,0.01,2.649l10.28,36.835
		l-2.538,33.913l0.023,0.002c-0.064,0.827,0.056,1.677,0.431,2.482c1.661,3.568,6.172,13.836,7.244,18.773
		C343.572,293.413,339.638,331.349,335.554,367.765z M342.3,211.778l-4.617-16.544l3.009-11.126l13.882,7.595L342.3,211.778z
		 M345.973,224.94l16.539-27.054c3.051,3.487,7.428,9.256,11.809,17.696l-27.385,12.811L345.973,224.94z M348.442,238.729
		l30.089-14.076c1.98,4.765,3.859,10.136,5.511,16.15l-32.498,10.449C350.149,247.318,349.027,243.096,348.442,238.729z
		 M355.488,260.487l30.9-9.935c1.021,4.954,1.867,10.289,2.501,15.985L362.987,273C361.163,270.44,358.262,266.044,355.488,260.487z
		 M368.66,288.701l-1.612-6.407l22.929-5.722l0.728,6.79L368.66,288.701z M401.226,316.771c-0.771,4.035-3.491,12.378-7.526,14.375
		c-0.595,0.295-1.486,0.566-2.861,0.251c2.978-3.208,4.02-8.479,3.264-16.54c-0.258-2.75-2.707-4.771-5.445-4.511
		c-2.749,0.258-4.77,2.696-4.512,5.445c0.675,7.189-0.601,8.776-0.58,8.776c-0.441,0.207-1.984,0.061-2.973-0.043
		c-0.502-1.421-0.765-4.623-0.553-7.277c0.193-2.324-1.244-4.473-3.466-5.18c-4.439-1.412-4.942-9.067-4.703-13.856l16.334-3.956
		C391.91,296.433,401.732,303.48,401.226,316.771z"/>
</g>
<g>
</g>
<g>
</g>
<g>
</g>
<g>
</g>
<g>
</g>
<g>
</g>
<g>
</g>
<g>
</g>
<g>
</g>
<g>
</g>
<g>
</g>
<g>
</g>
<g>
</g>
<g>
</g>
<g>
</g>
</svg>
