<?xml version="1.0" standalone="no"?>
<!DOCTYPE svg PUBLIC "-//W3C//DTD SVG 20010904//EN"
 "http://www.w3.org/TR/2001/REC-SVG-20010904/DTD/svg10.dtd">
<svg version="1.0" xmlns="http://www.w3.org/2000/svg"
 width="388.000000pt" height="388.000000pt" viewBox="0 0 388.000000 388.000000"
 preserveAspectRatio="xMidYMid meet">
<metadata>
Created by potrace 1.11, written by Peter Selinger 2001-2013
</metadata>
<g transform="translate(0.000000,388.000000) scale(0.100000,-0.100000)"
fill="#000000" stroke="none">
<path d="M0 1940 l0 -1940 1940 0 1940 0 0 1940 0 1940 -1940 0 -1940 0 0
-1940z m1980 1736 c0 -3 -185 -515 -310 -856 l-38 -105 -274 -5 c-233 -4 -278
-8 -304 -22 -47 -26 -93 -67 -108 -97 -8 -14 -104 -275 -215 -579 -182 -501
-201 -559 -201 -616 0 -55 4 -70 32 -112 22 -32 49 -57 83 -74 l49 -25 377 -3
377 -3 15 43 c8 24 137 378 287 788 149 410 341 939 427 1175 86 237 160 434
164 439 14 15 228 -61 367 -130 472 -234 820 -681 921 -1185 54 -268 54 -460
0 -728 -99 -496 -449 -950 -907 -1180 -101 -50 -288 -124 -302 -119 -4 2 50
161 120 353 70 193 266 730 435 1195 169 465 310 853 313 863 4 16 -8 17 -183
15 l-187 -3 -154 -425 c-86 -234 -190 -522 -233 -640 l-79 -215 -136 -3 -136
-3 26 73 c15 40 118 324 230 632 112 307 204 565 204 572 0 11 -35 14 -181 14
l-180 0 -14 -34 c-8 -19 -112 -301 -231 -628 -212 -583 -216 -594 -212 -660 5
-85 39 -140 113 -177 47 -25 59 -26 238 -29 181 -4 188 -5 181 -24 -3 -10 -81
-227 -174 -481 l-168 -462 -63 -3 c-135 -7 -395 33 -554 84 -110 36 -307 131
-407 196 -380 248 -661 657 -747 1089 -54 268 -54 460 0 728 102 511 459 964
942 1197 185 88 361 139 567 163 79 9 230 14 230 7z m-440 -1208 c0 -4 -37
-106 -224 -618 l-154 -425 -137 -3 c-128 -2 -137 -1 -130 15 4 10 67 185 142
388 124 341 179 492 220 603 l16 42 133 0 c74 0 134 -1 134 -2z"/>
</g>
</svg>
