<svg fill="#000000" xmlns="http://www.w3.org/2000/svg"  viewBox="0 0 80 80" width="80px" height="80px"><path d="M 36 7.0175781 A 1.0001 1.0001 0 0 0 35 8.0175781 L 35 9 A 1.0001 1.0001 0 0 0 34.916016 9.0039062 C 33.011306 9.1646284 25.921064 9.9914487 19.978516 15.927734 C 13.812561 22.088471 13.12088 29.518871 13.001953 31.363281 A 1.0001 1.0001 0 0 0 13 31.427734 L 13 34 L 11 34 A 1.0001 1.0001 0 0 0 10 35 L 10 43 A 1.0001 1.0001 0 0 0 11 44 L 13.201172 44 C 14.543095 51.515904 17.684555 58.597805 22.210938 63.896484 C 26.908589 69.395655 33.106069 73 40.121094 73 C 47.086883 73 53.18413 69.353315 57.802734 63.837891 C 62.253197 58.523257 65.344924 51.447484 66.738281 44 L 69 44 A 1.0001 1.0001 0 0 0 70 43 L 70 35 A 1.0001 1.0001 0 0 0 69 34 L 66.941406 34 C 66.968947 31.90845 66.816168 24.726107 61.681641 18.158203 C 55.475863 10.218688 46.685094 9.2101261 45.056641 9.0546875 A 1.0001 1.0001 0 0 0 45 9.0507812 L 45 8.0175781 A 1.0001 1.0001 0 0 0 44 7.0175781 L 36 7.0175781 z M 37 9.0175781 L 39 9.0175781 A 1 1 0 0 0 40 10 A 1 1 0 0 0 41 9.0175781 L 43 9.0175781 L 43 21 L 37 21 L 37 9.0175781 z M 35 11.013672 L 35 22 A 1.0001 1.0001 0 0 0 36 23 L 44 23 A 1.0001 1.0001 0 0 0 45 22 L 45 11.066406 C 46.665768 11.231405 54.500062 12.21921 60.105469 19.390625 C 64.821717 25.42348 64.967325 32.066451 64.941406 33.986328 A 1.0001 1.0001 0 0 0 64.941406 34 L 60 34 A 1.0001 1.0001 0 0 0 59 35 L 59 43 A 1.0001 1.0001 0 0 0 60 44 L 64.6875 44 C 63.316589 51.000578 60.382447 57.643143 56.269531 62.554688 C 51.925885 67.741764 46.391305 71 40.121094 71 C 33.789119 71 28.146568 67.767236 23.730469 62.597656 C 19.54595 57.69917 16.571468 51.05521 15.25 44 L 20 44 A 1.0001 1.0001 0 0 0 21 43 L 21 35 A 1.0001 1.0001 0 0 0 20 34 L 15 34 L 15 31.474609 C 15.11103 29.765475 15.754176 22.97738 21.392578 17.34375 C 26.796217 11.945805 33.195965 11.169391 35 11.013672 z M 40 12 A 1 1 0 0 0 40 14 A 1 1 0 0 0 40 12 z M 50.609375 14.150391 C 50.069375 14.050391 49.549219 14.409219 49.449219 14.949219 C 49.349219 15.489219 49.71 16.009375 50.25 16.109375 C 50.31 16.119375 50.369687 16.130859 50.429688 16.130859 C 50.909688 16.130859 51.330156 15.790547 51.410156 15.310547 C 51.509156 14.760547 51.149375 14.250391 50.609375 14.150391 z M 28.806641 14.341797 C 28.677156 14.327891 28.542406 14.340859 28.410156 14.380859 C 27.880156 14.540859 27.580234 15.099141 27.740234 15.619141 L 27.740234 15.630859 C 27.870234 16.060859 28.269219 16.339844 28.699219 16.339844 C 28.799219 16.339844 28.889234 16.320781 28.990234 16.300781 C 29.519234 16.140781 29.819156 15.580781 29.660156 15.050781 C 29.540156 14.653281 29.195094 14.383516 28.806641 14.341797 z M 40 16 A 1 1 0 0 0 40 18 A 1 1 0 0 0 40 16 z M 49.888672 18.080078 C 49.348672 17.980078 48.829516 18.340625 48.728516 18.890625 C 48.629516 19.430625 48.989297 19.950781 49.529297 20.050781 C 49.599297 20.060781 49.660703 20.060547 49.720703 20.060547 C 50.189703 20.060547 50.608219 19.730234 50.699219 19.240234 C 50.798219 18.700234 50.438672 18.180078 49.888672 18.080078 z M 29.957031 18.171875 C 29.8275 18.157969 29.693047 18.170938 29.560547 18.210938 C 29.031547 18.370938 28.730625 18.930937 28.890625 19.460938 C 29.020625 19.890937 29.419609 20.169922 29.849609 20.169922 C 29.939609 20.169922 30.040625 20.150859 30.140625 20.130859 C 30.670625 19.970859 30.970547 19.410859 30.810547 18.880859 C 30.690547 18.483359 30.345625 18.213594 29.957031 18.171875 z M 23.021484 21.005859 C 22.891391 21.017891 22.761172 21.054141 22.638672 21.119141 C 22.148672 21.379141 21.968516 21.980703 22.228516 22.470703 C 22.409516 22.810703 22.750375 23 23.109375 23 C 23.270375 23 23.430078 22.960859 23.580078 22.880859 C 24.069078 22.620859 24.250234 22.019297 23.990234 21.529297 C 23.802734 21.161797 23.411766 20.969766 23.021484 21.005859 z M 56.087891 21.005859 C 55.69775 20.969766 55.306641 21.161797 55.119141 21.529297 C 54.858141 22.019297 55.039297 22.620859 55.529297 22.880859 C 55.679297 22.960859 55.84 23 56 23 C 56.359 23 56.700859 22.810703 56.880859 22.470703 C 57.140859 21.980703 56.960703 21.379141 56.470703 21.119141 C 56.347953 21.054141 56.217937 21.017891 56.087891 21.005859 z M 31.105469 22.001953 C 30.975938 21.988047 30.843438 21.999063 30.710938 22.039062 C 30.180938 22.199063 29.879062 22.759062 30.039062 23.289062 C 30.169062 23.719062 30.569 24 31 24 C 31.09 24 31.188063 23.990937 31.289062 23.960938 C 31.818062 23.800937 32.120937 23.240938 31.960938 22.710938 C 31.840937 22.313438 31.494062 22.043672 31.105469 22.001953 z M 49.179688 22.019531 C 48.629688 21.919531 48.120531 22.280313 48.019531 22.820312 C 47.920531 23.370312 48.279359 23.890234 48.818359 23.990234 C 48.879359 24.000234 48.939 24 49 24 C 49.47 24 49.898516 23.659688 49.978516 23.179688 C 50.078516 22.639688 49.719687 22.109531 49.179688 22.019531 z M 59.164062 23.550781 C 58.910187 23.522031 58.644688 23.589766 58.429688 23.759766 C 57.999687 24.099766 57.919531 24.729922 58.269531 25.169922 C 58.459531 25.419922 58.760781 25.539062 59.050781 25.539062 C 59.270781 25.539063 59.489922 25.480078 59.669922 25.330078 C 60.099922 24.990078 60.180078 24.359922 59.830078 23.919922 C 59.660578 23.704922 59.417938 23.579531 59.164062 23.550781 z M 19.945312 23.552734 C 19.691688 23.582734 19.449297 23.709688 19.279297 23.929688 C 18.928297 24.359688 19.009453 24.990078 19.439453 25.330078 C 19.620453 25.470078 19.839594 25.539062 20.058594 25.539062 C 20.348594 25.539062 20.649844 25.419922 20.839844 25.169922 C 21.189844 24.729922 21.109687 24.099766 20.679688 23.759766 C 20.465187 23.589766 20.198937 23.522734 19.945312 23.552734 z M 34 26 C 33.45 26 33 26.45 33 27 C 33 27.55 33.45 28 34 28 C 34.55 28 35 27.55 35 27 C 35 26.45 34.55 26 34 26 z M 38 26 C 37.45 26 37 26.45 37 27 C 37 27.55 37.45 28 38 28 C 38.55 28 39 27.55 39 27 C 39 26.45 38.55 26 38 26 z M 42 26 C 41.45 26 41 26.45 41 27 C 41 27.55 41.45 28 42 28 C 42.55 28 43 27.55 43 27 C 43 26.45 42.55 26 42 26 z M 46 26 C 45.45 26 45 26.45 45 27 C 45 27.55 45.45 28 46 28 C 46.55 28 47 27.55 47 27 C 47 26.45 46.55 26 46 26 z M 18.150391 27.113281 C 17.764141 27.17375 17.435078 27.454375 17.330078 27.859375 C 17.190078 28.389375 17.520781 28.940313 18.050781 29.070312 C 18.140781 29.100313 18.220781 29.099609 18.300781 29.099609 C 18.750781 29.099609 19.149531 28.799609 19.269531 28.349609 C 19.409531 27.809609 19.080781 27.270859 18.550781 27.130859 C 18.415781 27.098359 18.279141 27.093125 18.150391 27.113281 z M 60.958984 27.117188 C 60.830219 27.098437 60.695547 27.105625 60.560547 27.140625 C 60.030547 27.270625 59.699844 27.809609 59.839844 28.349609 C 59.959844 28.799609 60.359547 29.099609 60.810547 29.099609 C 60.890547 29.099609 60.970547 29.090312 61.060547 29.070312 C 61.591547 28.940312 61.91125 28.389375 61.78125 27.859375 C 61.6755 27.454375 61.345281 27.173438 60.958984 27.117188 z M 30 30 L 39.21875 36.5625 L 40 37.119141 L 40.78125 36.5625 L 50 30 L 40 33.1875 L 30 30 z M 12 36 L 13.832031 36 A 1.0001 1.0001 0 0 0 14.158203 36 L 19 36 L 19 42 L 14.158203 42 A 1.0001 1.0001 0 0 0 13.826172 42 L 12 42 L 12 40 A 1 1 0 0 0 12 38 L 12 36 z M 61 36 L 68 36 L 68 38 A 1 1 0 0 0 68 40 L 68 42 L 66.109375 42 A 1.0001 1.0001 0 0 0 65.78125 42 L 61 42 L 61 36 z M 30 36.929688 C 27 36.929688 24 37.716969 24 39.292969 C 24 42.444969 26.686 45 30 45 C 33.314 45 36 42.444969 36 39.292969 C 36 37.716969 33 36.929688 30 36.929688 z M 50 36.929688 C 47 36.929688 44 37.716969 44 39.292969 C 44 42.444969 46.686 45 50 45 C 53.314 45 56 42.444969 56 39.292969 C 56 37.716969 53 36.929688 50 36.929688 z M 16 38 A 1 1 0 0 0 16 40 A 1 1 0 0 0 16 38 z M 64 38 A 1 1 0 0 0 64 40 A 1 1 0 0 0 64 38 z M 26 47 C 24.604 47.709 23.323516 48.793688 22.353516 50.179688 C 21.374516 51.561688 20.71725 53.212891 20.40625 54.962891 L 23.595703 55.037109 C 23.364703 53.704109 23.395156 52.271813 23.785156 50.882812 C 24.166156 49.490813 24.92 48.137 26 47 z M 54 47 C 55.08 48.137 55.833844 49.490812 56.214844 50.882812 C 56.604844 52.271813 56.634297 53.704109 56.404297 55.037109 L 59.59375 54.962891 C 59.28275 53.211891 58.625484 51.561687 57.646484 50.179688 C 56.676484 48.793687 55.396 47.709 54 47 z M 40.001953 48 C 40.001953 48 35 49.737 35 51 L 45 51 C 45 49.338 40.001953 48 40.001953 48 z M 50 51.998047 C 49.742625 51.998047 49.484063 52.094062 49.289062 52.289062 C 48.898063 52.679062 48.898063 53.320937 49.289062 53.710938 C 49.489062 53.900938 49.74 54 50 54 C 50.26 54 50.510937 53.900937 50.710938 53.710938 C 51.100937 53.320938 51.100938 52.689062 50.710938 52.289062 C 50.515438 52.094063 50.257375 51.998047 50 51.998047 z M 29.912109 52.005859 C 29.657109 52.029609 29.408516 52.149375 29.228516 52.359375 C 28.879516 52.779375 28.929375 53.409531 29.359375 53.769531 C 29.550375 53.929531 29.77 54 30 54 C 30.29 54 30.569531 53.880625 30.769531 53.640625 C 31.119531 53.220625 31.058672 52.590469 30.638672 52.230469 C 30.428672 52.055469 30.167109 51.982109 29.912109 52.005859 z M 45.134766 53.007812 C 45.006469 52.989219 44.872484 52.994297 44.740234 53.029297 C 44.210234 53.179297 43.888297 53.729766 44.029297 54.259766 C 44.148297 54.709766 44.56 55 45 55 C 45.08 55 45.170766 54.990703 45.259766 54.970703 C 45.789766 54.820703 46.10875 54.280234 45.96875 53.740234 C 45.85625 53.342734 45.519656 53.063594 45.134766 53.007812 z M 34.798828 53.019531 C 34.414969 53.097344 34.102031 53.398047 34.019531 53.810547 C 33.915768 54.356816 34.264074 54.871139 34.800781 54.980469 C 34.870781 54.990469 34.939 55 35 55 C 35.47 55 35.880469 54.669219 35.980469 54.199219 C 36.091469 53.649219 35.741172 53.129531 35.201172 53.019531 C 35.063422 52.992031 34.926781 52.993594 34.798828 53.019531 z M 52.824219 54.828125 C 52.569219 54.828125 52.314141 54.924141 52.119141 55.119141 C 51.728141 55.509141 51.728141 56.149062 52.119141 56.539062 C 52.318141 56.729063 52.569078 56.830078 52.830078 56.830078 C 53.080078 56.830078 53.339297 56.729062 53.529297 56.539062 C 53.919297 56.149062 53.919297 55.509141 53.529297 55.119141 C 53.334297 54.924141 53.079219 54.828125 52.824219 54.828125 z M 27.34375 55.076172 C 27.088875 55.099922 26.844922 55.219687 26.669922 55.429688 C 26.319922 55.859688 26.370781 56.489844 26.800781 56.839844 C 26.979781 56.999844 27.210453 57.070312 27.439453 57.070312 C 27.720453 57.070312 28.010938 56.950938 28.210938 56.710938 C 28.559938 56.290938 28.500078 55.660781 28.080078 55.300781 C 27.864578 55.125781 27.598625 55.052422 27.34375 55.076172 z M 46.167969 56.875 C 46.039062 56.857188 45.904531 56.865391 45.769531 56.900391 C 45.240531 57.040391 44.920547 57.589141 45.060547 58.119141 C 45.180547 58.569141 45.589297 58.869141 46.029297 58.869141 C 46.119297 58.869141 46.199062 58.850078 46.289062 58.830078 C 46.818062 58.690078 47.14 58.139375 47 57.609375 C 46.8875 57.204375 46.554688 56.928438 46.167969 56.875 z M 34.013672 56.939453 C 33.631359 57.017266 33.312969 57.317969 33.230469 57.730469 C 33.130469 58.270469 33.479531 58.800391 34.019531 58.900391 C 34.079531 58.920391 34.148703 58.919922 34.220703 58.919922 C 34.679703 58.919922 35.100172 58.589141 35.201172 58.119141 C 35.301172 57.579141 34.950156 57.049453 34.410156 56.939453 C 34.275156 56.911953 34.141109 56.913516 34.013672 56.939453 z M 47.201172 60.738281 C 47.071484 60.719687 46.935781 60.724766 46.800781 60.759766 C 46.270781 60.909766 45.949844 61.450234 46.089844 61.990234 L 46.099609 61.990234 C 46.209609 62.440234 46.619594 62.730469 47.058594 62.730469 C 47.148594 62.730469 47.228359 62.719219 47.318359 62.699219 C 47.848359 62.549219 48.169297 62.000703 48.029297 61.470703 C 47.924297 61.073203 47.590234 60.794062 47.201172 60.738281 z M 33.630859 60.859375 C 33.090859 60.759375 32.558219 61.110391 32.449219 61.650391 C 32.338219 62.190391 32.688516 62.720078 33.228516 62.830078 C 33.299516 62.840078 33.369687 62.839844 33.429688 62.839844 C 33.898688 62.839844 34.319156 62.519062 34.410156 62.039062 C 34.520156 61.499063 34.170859 60.969375 33.630859 60.859375 z M 48.230469 64.605469 C 48.100797 64.587656 47.965078 64.595859 47.830078 64.630859 C 47.300078 64.770859 46.980859 65.319609 47.130859 65.849609 C 47.240859 66.299609 47.649844 66.599609 48.089844 66.599609 C 48.179844 66.599609 48.259609 66.580547 48.349609 66.560547 C 48.879609 66.420547 49.199594 65.869844 49.058594 65.339844 C 48.954344 64.934844 48.619484 64.658906 48.230469 64.605469 z M 32.443359 64.789062 C 32.061797 64.866406 31.744922 65.165312 31.669922 65.570312 C 31.558922 66.110313 31.909219 66.64 32.449219 66.75 C 32.519219 66.76 32.580391 66.769531 32.650391 66.769531 C 33.109391 66.769531 33.530859 66.440938 33.630859 65.960938 C 33.740859 65.420937 33.379844 64.899062 32.839844 64.789062 C 32.704844 64.761563 32.570547 64.763281 32.443359 64.789062 z"/></svg>