<?xml version="1.0" encoding="iso-8859-1"?>
<!-- Generator: Adobe Illustrator 18.0.0, SVG Export Plug-In . SVG Version: 6.00 Build 0)  -->
<!DOCTYPE svg PUBLIC "-//W3C//DTD SVG 1.1//EN" "http://www.w3.org/Graphics/SVG/1.1/DTD/svg11.dtd">
<svg version="1.1" id="Capa_1" xmlns="http://www.w3.org/2000/svg" xmlns:xlink="http://www.w3.org/1999/xlink" x="0px" y="0px"
	 viewBox="0 0 460 460" style="enable-background:new 0 0 460 460;" xml:space="preserve">
<path id="XMLID_1444_" d="M459.979,185.23c-0.046-2.295-1.172-4.433-3.038-5.77l-83.842-60.046l11.041-11.041
	c2.842-2.843,2.842-7.451,0-10.293l-35.289-35.289c-1.366-1.365-3.217-2.132-5.147-2.132s-3.781,0.767-5.147,2.132l-11.961,11.962
	l-59.55-59.55c-2.449-2.447-6.28-2.834-9.165-0.922c-2.886,1.911-4.027,5.59-2.728,8.798c7.036,17.392,20.839,66.989,0.475,87.353
	l-34.164,34.165c-2.842,2.842-2.842,7.451,0,10.293l12.498,12.498L2.132,399.216c-2.842,2.842-2.842,7.451,0,10.293l35.289,35.289
	c1.422,1.421,3.285,2.132,5.147,2.132s3.725-0.711,5.147-2.132l230.907-230.907l60.047,83.842c1.336,1.866,3.475,2.992,5.77,3.039
	c0.678,0.014,1.353,0.02,2.031,0.02c28.776,0,57.601-12.377,79.378-34.153C448.137,244.35,460.577,214.678,459.979,185.23z
	 M343.704,78.231l24.996,24.996l-6.815,6.815l-24.996-24.996L343.704,78.231z M285.076,197.985
	c-11.025-12.998-48.173-48.242-48.173-48.242l29.018-29.019c18.842-18.842,16.401-51.336,11.224-74.836
	c0,0,58.476,61.678,80.048,79.979c13.896,11.789,59.233,42.482,59.233,42.482c-0.052,22.37-9.79,44.864-26.898,61.971
	c-17.105,17.106-39.623,26.848-61.97,26.897C327.557,257.217,296.863,211.882,285.076,197.985z M42.568,429.358l-24.996-24.996
	l226.682-226.681l24.996,24.996L42.568,429.358z M415.553,256.346c-18.587,18.588-42.904,29.35-67.227,29.87l-10.747-15.006
	c22.777-2.51,44.948-13.303,62.241-30.597c17.295-17.294,28.087-39.466,30.596-62.243l15.007,10.748
	C444.902,213.44,434.14,237.76,415.553,256.346z"/>
<g>
</g>
<g>
</g>
<g>
</g>
<g>
</g>
<g>
</g>
<g>
</g>
<g>
</g>
<g>
</g>
<g>
</g>
<g>
</g>
<g>
</g>
<g>
</g>
<g>
</g>
<g>
</g>
<g>
</g>
</svg>
